<svg width="150" height="33" viewBox="0 0 150 33" fill="none" xmlns="http://www.w3.org/2000/svg">
<g clip-path="url(#clip0_2064_1970)">
<path d="M34.7461 2.47168H47.0398C49.4702 2.47168 51.4292 3.15984 52.9171 4.53612C54.4049 5.90003 55.1489 7.82188 55.1489 10.3017C55.1489 12.4343 54.4855 14.2942 53.1588 15.8813C51.8321 17.456 49.7925 18.2433 47.0398 18.2433H38.4473V29.7931H34.7461V2.47168ZM51.4105 10.3203C51.4105 8.31166 50.6665 6.94774 49.1787 6.2286C48.3603 5.84422 47.2381 5.65204 45.8124 5.65204H38.4473V15.1188H45.8124C47.474 15.1188 48.8192 14.7654 49.8482 14.0586C50.8898 13.3519 51.4105 12.1058 51.4105 10.3203ZM58.3024 2.47168H61.6502V29.7931H58.3024V2.47168ZM68.8955 9.87394V23.0976C68.8955 24.1143 69.0567 24.945 69.379 25.5898C69.9744 26.7801 71.084 27.3752 72.7083 27.3752C75.0392 27.3752 76.6263 26.3337 77.4696 24.2507C77.9281 23.1348 78.1576 21.6035 78.1576 19.6568V9.87394H81.5054V29.7931H78.3436L78.3808 26.8545C77.9469 27.6108 77.4075 28.2494 76.7629 28.7701C75.4857 29.8115 73.9357 30.3325 72.113 30.3325C69.2738 30.3325 67.3394 29.3839 66.3104 27.4868C65.7522 26.4701 65.4733 25.1124 65.4733 23.4137V9.87394H68.8955ZM87.2441 9.87394L92.5635 26.092L98.1243 9.87394H101.788L94.2746 29.7931H90.7035L83.3571 9.87394H87.2441ZM103.51 9.96693H106.913V29.7931H103.51V9.96693ZM103.51 2.47168H106.913V6.26579H103.51V2.47168ZM118.752 27.6356C120.972 27.6356 122.491 26.7987 123.309 25.1248C124.14 23.4385 124.555 21.5663 124.555 19.508C124.555 17.6482 124.258 16.1355 123.663 14.97C122.72 13.1349 121.096 12.2173 118.79 12.2173C116.744 12.2173 115.256 12.9985 114.326 14.5608C113.396 16.1231 112.931 18.0077 112.931 20.2148C112.931 22.335 113.396 24.1019 114.326 25.5154C115.256 26.9289 116.732 27.6356 118.752 27.6356ZM118.883 9.29737C121.449 9.29737 123.619 10.1529 125.392 11.864C127.165 13.5751 128.052 16.0921 128.052 19.415C128.052 22.6264 127.271 25.2798 125.709 27.3752C124.146 29.4707 121.722 30.5185 118.436 30.5185C115.696 30.5185 113.52 29.5947 111.908 27.7472C110.296 25.8874 109.49 23.3952 109.49 20.2706C109.49 16.9228 110.34 14.257 112.038 12.2732C113.737 10.2893 116.018 9.29737 118.883 9.29737ZM130.908 9.87394H134.088V12.7009C135.031 11.5354 136.029 10.6985 137.082 10.1901C138.136 9.68176 139.308 9.42758 140.598 9.42758C143.425 9.42758 145.334 10.4133 146.326 12.3847C146.872 13.4635 147.144 15.0071 147.144 17.0158V29.7931H143.741V17.239C143.741 16.0239 143.561 15.0444 143.202 14.3004C142.606 13.0605 141.528 12.4406 139.965 12.4406C139.172 12.4406 138.521 12.5211 138.012 12.6823C137.095 12.9551 136.289 13.5007 135.595 14.319C135.037 14.9761 134.671 15.6581 134.497 16.3649C134.336 17.0592 134.256 18.0573 134.256 19.3592V29.7931H130.908V9.87394Z" fill="black"/>
<mask id="mask0_2064_1970" style="mask-type:luminance" maskUnits="userSpaceOnUse" x="34" y="1" width="114" height="30">
<path d="M147.52 1.95801H34.4219V30.965H147.52V1.95801Z" fill="white"/>
<path d="M34.7461 2.47168H47.0398C49.4702 2.47168 51.4292 3.15984 52.9171 4.53612C54.4049 5.90003 55.1489 7.82188 55.1489 10.3017C55.1489 12.4343 54.4855 14.2942 53.1588 15.8813C51.8321 17.456 49.7925 18.2433 47.0398 18.2433H38.4473V29.7931H34.7461V2.47168ZM51.4105 10.3203C51.4105 8.31166 50.6665 6.94774 49.1787 6.2286C48.3603 5.84422 47.2381 5.65204 45.8124 5.65204H38.4473V15.1188H45.8124C47.474 15.1188 48.8192 14.7654 49.8482 14.0586C50.8898 13.3519 51.4105 12.1058 51.4105 10.3203ZM58.3024 2.47168H61.6502V29.7931H58.3024V2.47168ZM68.8955 9.87394V23.0976C68.8955 24.1143 69.0567 24.945 69.379 25.5898C69.9744 26.7801 71.084 27.3752 72.7083 27.3752C75.0392 27.3752 76.6263 26.3337 77.4696 24.2507C77.9281 23.1348 78.1576 21.6035 78.1576 19.6568V9.87394H81.5054V29.7931H78.3436L78.3808 26.8545C77.9469 27.6108 77.4075 28.2494 76.7629 28.7701C75.4857 29.8115 73.9357 30.3325 72.113 30.3325C69.2738 30.3325 67.3394 29.3839 66.3104 27.4868C65.7522 26.4701 65.4733 25.1124 65.4733 23.4137V9.87394H68.8955ZM87.2441 9.87394L92.5635 26.092L98.1243 9.87394H101.788L94.2746 29.7931H90.7035L83.3571 9.87394H87.2441ZM103.51 9.96693H106.913V29.7931H103.51V9.96693ZM103.51 2.47168H106.913V6.26579H103.51V2.47168ZM118.752 27.6356C120.972 27.6356 122.491 26.7987 123.309 25.1248C124.14 23.4385 124.555 21.5663 124.555 19.508C124.555 17.6482 124.258 16.1355 123.663 14.97C122.72 13.1349 121.096 12.2173 118.79 12.2173C116.744 12.2173 115.256 12.9985 114.326 14.5608C113.396 16.1231 112.931 18.0077 112.931 20.2148C112.931 22.335 113.396 24.1019 114.326 25.5154C115.256 26.9289 116.732 27.6356 118.752 27.6356ZM118.883 9.29737C121.449 9.29737 123.619 10.1529 125.392 11.864C127.165 13.5751 128.052 16.0921 128.052 19.415C128.052 22.6264 127.271 25.2798 125.709 27.3752C124.146 29.4707 121.722 30.5185 118.436 30.5185C115.696 30.5185 113.52 29.5947 111.908 27.7472C110.296 25.8874 109.49 23.3952 109.49 20.2706C109.49 16.9228 110.34 14.257 112.038 12.2732C113.737 10.2893 116.018 9.29737 118.883 9.29737ZM130.908 9.87394H134.088V12.7009C135.031 11.5354 136.029 10.6985 137.082 10.1901C138.136 9.68176 139.308 9.42758 140.598 9.42758C143.425 9.42758 145.334 10.4133 146.326 12.3847C146.872 13.4635 147.144 15.0071 147.144 17.0158V29.7931H143.741V17.239C143.741 16.0239 143.561 15.0444 143.202 14.3004C142.606 13.0605 141.528 12.4406 139.965 12.4406C139.172 12.4406 138.521 12.5211 138.012 12.6823C137.095 12.9551 136.289 13.5007 135.595 14.319C135.037 14.9761 134.671 15.6581 134.497 16.3649C134.336 17.0592 134.256 18.0573 134.256 19.3592V29.7931H130.908V9.87394Z" fill="black"/>
</mask>
<g mask="url(#mask0_2064_1970)">
<path d="M34.7461 2.47171V2.17871H34.4531V2.47171H34.7461ZM52.9171 4.53615L52.7182 4.75124L52.719 4.75215L52.9171 4.53615ZM53.1588 15.8813L53.383 16.0701L53.3836 16.0692L53.1588 15.8813ZM38.4473 18.2434V17.9504H38.1543V18.2434H38.4473ZM38.4473 29.7931V30.0861H38.7403V29.7931H38.4473ZM34.7461 29.7931H34.4531V30.0861H34.7461V29.7931ZM49.1787 6.22864L49.3062 5.96482L49.3032 5.96344L49.1787 6.22864ZM38.4473 5.65207V5.35907H38.1543V5.65207H38.4473ZM38.4473 15.1188H38.1543V15.4118H38.4473V15.1188ZM49.8482 14.0587L49.6838 13.8162L49.6824 13.8171L49.8482 14.0587ZM34.7461 2.76471H47.0398V2.17871H34.7461V2.76471ZM47.0398 2.76471C49.4119 2.76471 51.2948 3.43468 52.7182 4.75124L53.1161 4.32106C51.5637 2.88505 49.5283 2.17871 47.0398 2.17871V2.76471ZM52.719 4.75215C54.1331 6.04821 54.8559 7.88382 54.8559 10.3017H55.4419C55.4419 7.76 54.6769 5.7519 53.1152 4.32018L52.719 4.75215ZM54.8559 10.3017C54.8559 12.368 54.2154 14.1608 52.9341 15.6934L53.3836 16.0692C54.756 14.4277 55.4419 12.5008 55.4419 10.3017H54.8559ZM52.9347 15.6925C51.6809 17.1807 49.7369 17.9504 47.0398 17.9504V18.5364C49.8479 18.5364 51.9833 17.7313 53.383 16.0701L52.9347 15.6925ZM47.0398 17.9504H38.4473V18.5364H47.0398V17.9504ZM38.1543 18.2434V29.7931H38.7403V18.2434H38.1543ZM38.4473 29.5001H34.7461V30.0861H38.4473V29.5001ZM35.0391 29.7931V2.47171H34.4531V29.7931H35.0391ZM51.7035 10.3203C51.7035 9.28093 51.5113 8.3864 51.1099 7.65062C50.7067 6.91144 50.1017 6.34924 49.3062 5.96482L49.0513 6.49242C49.7439 6.82718 50.2546 7.3065 50.5954 7.93123C50.9382 8.55933 51.1175 9.35108 51.1175 10.3203H51.7035ZM49.3032 5.96344C48.4301 5.55321 47.2593 5.35907 45.8124 5.35907V5.94507C47.2174 5.94507 48.2909 6.13532 49.0542 6.49383L49.3032 5.96344ZM45.8124 5.35907H38.4473V5.94507H45.8124V5.35907ZM38.1543 5.65207V15.1188H38.7403V5.65207H38.1543ZM38.4473 15.4118H45.8124V14.8258H38.4473V15.4118ZM45.8124 15.4118C47.5139 15.4118 48.9223 15.0499 50.0141 14.3002L49.6824 13.8171C48.7161 14.4809 47.4339 14.8258 45.8124 14.8258V15.4118ZM50.0129 14.3011C51.1653 13.5191 51.7035 12.159 51.7035 10.3203H51.1175C51.1175 12.0525 50.6144 13.1847 49.6838 13.8162L50.0129 14.3011ZM58.3024 2.47171V2.17871H58.0094V2.47171H58.3024ZM61.6503 2.47171H61.9433V2.17871H61.6503V2.47171ZM61.6503 29.7931V30.0861H61.9433V29.7931H61.6503ZM58.3024 29.7931H58.0094V30.0861H58.3024V29.7931ZM58.3024 2.76471H61.6503V2.17871H58.3024V2.76471ZM61.3573 2.47171V29.7931H61.9433V2.47171H61.3573ZM61.6503 29.5001H58.3024V30.0861H61.6503V29.5001ZM58.5954 29.7931V2.47171H58.0094V29.7931H58.5954ZM68.8956 9.87397H69.1886V9.58097H68.8956V9.87397ZM77.4696 24.2507L77.1986 24.1393L77.198 24.1408L77.4696 24.2507ZM78.1576 9.87397V9.58097H77.8646V9.87397H78.1576ZM81.5054 9.87397H81.7984V9.58097H81.5054V9.87397ZM81.5054 29.7931V30.0861H81.7984V29.7931H81.5054ZM78.3436 29.7931L78.0506 29.7893L78.0468 30.0861H78.3436V29.7931ZM78.3809 26.8545L78.6739 26.8582L78.6882 25.7303L78.1268 26.7087L78.3809 26.8545ZM76.7629 28.7702L76.5786 28.5422L76.5777 28.5431L76.7629 28.7702ZM66.3104 27.4869L66.568 27.3472L66.5671 27.3459L66.3104 27.4869ZM65.4733 9.87397V9.58097H65.1803V9.87397H65.4733ZM68.6026 9.87397V23.0976H69.1886V9.87397H68.6026ZM68.6026 23.0976C68.6026 24.1423 68.7678 25.0222 69.1171 25.7208L69.6413 25.4588C69.3456 24.8679 69.1886 24.0863 69.1886 23.0976H68.6026ZM69.1171 25.7208C69.44 26.3669 69.9079 26.8593 70.5194 27.1871C71.1273 27.5132 71.8613 27.6683 72.7084 27.6683V27.0823C71.9308 27.0823 71.2979 26.9398 70.7963 26.6707C70.2979 26.4034 69.9134 26.0031 69.6413 25.4588L69.1171 25.7208ZM72.7084 27.6683C73.9179 27.6683 74.9566 27.3977 75.8077 26.8391C76.6595 26.28 77.3014 25.447 77.7412 24.3606L77.198 24.1408C76.7946 25.1374 76.2212 25.8668 75.486 26.3492C74.7503 26.8321 73.8297 27.0823 72.7084 27.0823V27.6683ZM77.7406 24.3621C78.22 23.1958 78.4506 21.6211 78.4506 19.6569H77.8646C77.8646 21.5859 77.6366 23.0738 77.1986 24.1393L77.7406 24.3621ZM78.4506 19.6569V9.87397H77.8646V19.6569H78.4506ZM78.1576 10.167H81.5054V9.58097H78.1576V10.167ZM81.2124 9.87397V29.7931H81.7984V9.87397H81.2124ZM81.5054 29.5001H78.3436V30.0861H81.5054V29.5001ZM78.6366 29.7969L78.6739 26.8582L78.0879 26.8508L78.0506 29.7893L78.6366 29.7969ZM78.1268 26.7087C77.7099 27.4352 77.1936 28.0454 76.5786 28.5422L76.9469 28.9981C77.6214 28.4534 78.184 27.7865 78.6349 27.0003L78.1268 26.7087ZM76.5777 28.5431C75.3583 29.5373 73.876 30.0395 72.113 30.0395V30.6255C73.9955 30.6255 75.6129 30.0861 76.9481 28.9973L76.5777 28.5431ZM72.113 30.0395C69.3418 30.0395 67.5293 29.1196 66.568 27.3472L66.0529 27.6266C67.1496 29.6484 69.2056 30.6255 72.113 30.6255V30.0395ZM66.5671 27.3459C66.0415 26.3879 65.7663 25.0845 65.7663 23.4138H65.1803C65.1803 25.1404 65.4634 26.5524 66.0535 27.6278L66.5671 27.3459ZM65.7663 23.4138V9.87397H65.1803V23.4138H65.7663ZM65.4733 10.167H68.8956V9.58097H65.4733V10.167ZM87.2441 9.87397L87.5227 9.78267L87.4565 9.58097H87.2441V9.87397ZM92.5635 26.092L92.2852 26.1833L92.5574 27.0133L92.8407 26.187L92.5635 26.092ZM98.1244 9.87397V9.58097H97.9152L97.8472 9.77892L98.1244 9.87397ZM101.788 9.87397L102.063 9.97737L102.212 9.58097H101.788V9.87397ZM94.2746 29.7931V30.0861H94.4771L94.5486 29.8965L94.2746 29.7931ZM90.7036 29.7931L90.4287 29.8945L90.4993 30.0861H90.7036V29.7931ZM83.3572 9.87397V9.58097H82.9367L83.0823 9.97534L83.3572 9.87397ZM86.9658 9.96527L92.2852 26.1833L92.8419 26.0007L87.5227 9.78267L86.9658 9.96527ZM92.8407 26.187L98.4015 9.96902L97.8472 9.77892L92.2863 25.9969L92.8407 26.187ZM98.1244 10.167H101.788V9.58097H98.1244V10.167ZM101.514 9.77057L94.0004 29.6897L94.5486 29.8965L102.063 9.97737L101.514 9.77057ZM94.2746 29.5001H90.7036V30.0861H94.2746V29.5001ZM90.9784 29.6917L83.632 9.77259L83.0823 9.97534L90.4287 29.8945L90.9784 29.6917ZM83.3572 10.167H87.2441V9.58097H83.3572V10.167ZM103.51 9.96696V9.67396H103.217V9.96696H103.51ZM106.913 9.96696H107.206V9.67396H106.913V9.96696ZM106.913 29.7931V30.0861H107.206V29.7931H106.913ZM103.51 29.7931H103.217V30.0861H103.51V29.7931ZM103.51 2.47171V2.17871H103.217V2.47171H103.51ZM106.913 2.47171H107.206V2.17871H106.913V2.47171ZM106.913 6.26582V6.55882H107.206V6.26582H106.913ZM103.51 6.26582H103.217V6.55882H103.51V6.26582ZM103.51 10.26H106.913V9.67396H103.51V10.26ZM106.62 9.96696V29.7931H107.206V9.96696H106.62ZM106.913 29.5001H103.51V30.0861H106.913V29.5001ZM103.803 29.7931V9.96696H103.217V29.7931H103.803ZM103.51 2.76471H106.913V2.17871H103.51V2.76471ZM106.62 2.47171V6.26582H107.206V2.47171H106.62ZM106.913 5.97282H103.51V6.55882H106.913V5.97282ZM103.803 6.26582V2.47171H103.217V6.26582H103.803ZM123.309 25.1248L123.046 24.9954L123.046 24.9962L123.309 25.1248ZM123.663 14.97L123.924 14.8367L123.923 14.8362L123.663 14.97ZM111.908 27.7473L111.687 27.9391L111.687 27.9399L111.908 27.7473ZM118.752 27.9287C119.898 27.9287 120.885 27.7127 121.698 27.2646C122.514 26.8148 123.139 26.1404 123.572 25.2535L123.046 24.9962C122.661 25.7832 122.118 26.3642 121.415 26.7513C120.709 27.1402 119.826 27.3427 118.752 27.3427V27.9287ZM123.572 25.2543C124.424 23.5241 124.848 21.6069 124.848 19.5081H124.262C124.262 21.5257 123.855 23.3531 123.046 24.9954L123.572 25.2543ZM124.848 19.5081C124.848 17.6201 124.547 16.0572 123.924 14.8367L123.402 15.1033C123.969 16.2138 124.262 17.6763 124.262 19.5081H124.848ZM123.923 14.8362C123.429 13.8733 122.749 13.1403 121.882 12.6504C121.016 12.1616 119.982 11.9244 118.79 11.9244V12.5104C119.904 12.5104 120.835 12.7319 121.593 13.1607C122.35 13.5883 122.954 14.2316 123.402 15.1038L123.923 14.8362ZM118.79 11.9244C116.656 11.9244 115.064 12.7474 114.074 14.411L114.578 14.7107C115.447 13.2497 116.832 12.5104 118.79 12.5104V11.9244ZM114.074 14.411C113.112 16.0274 112.638 17.9663 112.638 20.2148H113.224C113.224 18.0493 113.68 16.2188 114.578 14.7107L114.074 14.411ZM112.638 20.2148C112.638 22.3778 113.113 24.2043 114.081 25.6765L114.571 25.3544C113.679 23.9995 113.224 22.2923 113.224 20.2148H112.638ZM114.081 25.6765C115.076 27.1892 116.655 27.9287 118.752 27.9287V27.3427C116.808 27.3427 115.435 26.6686 114.571 25.3544L114.081 25.6765ZM118.883 9.5904C121.377 9.5904 123.473 10.4189 125.189 12.0749L125.596 11.6532C123.766 9.887 121.522 9.0044 118.883 9.0044V9.5904ZM125.189 12.0749C126.887 13.7136 127.759 16.1429 127.759 19.4151H128.345C128.345 16.0413 127.444 13.4366 125.596 11.6532L125.189 12.0749ZM127.759 19.4151C127.759 22.578 126.99 25.166 125.474 27.2001L125.943 27.5504C127.551 25.3937 128.345 22.6748 128.345 19.4151H127.759ZM125.474 27.2001C123.981 29.2026 121.656 30.2256 118.436 30.2256V30.8116C121.788 30.8116 124.312 29.7389 125.943 27.5504L125.474 27.2001ZM118.436 30.2256C115.77 30.2256 113.678 29.3304 112.129 27.5546L111.687 27.9399C113.362 29.859 115.623 30.8116 118.436 30.8116V30.2256ZM112.13 27.5553C110.575 25.7619 109.783 23.3442 109.783 20.2706H109.197C109.197 23.4461 110.018 26.0129 111.687 27.9391L112.13 27.5553ZM109.783 20.2706C109.783 16.9726 110.619 14.381 112.261 12.4638L111.816 12.0826C110.06 14.1331 109.197 16.8731 109.197 20.2706H109.783ZM112.261 12.4638C113.898 10.5517 116.095 9.5904 118.883 9.5904V9.0044C115.942 9.0044 113.576 10.027 111.816 12.0826L112.261 12.4638ZM130.908 9.87397V9.58097H130.615V9.87397H130.908ZM134.088 9.87397H134.381V9.58097H134.088V9.87397ZM134.088 12.7009H133.795V13.5294L134.316 12.8852L134.088 12.7009ZM146.326 12.3848L146.064 12.5165L146.065 12.517L146.326 12.3848ZM147.144 29.7931V30.0861H147.437V29.7931H147.144ZM143.741 29.7931H143.448V30.0861H143.741V29.7931ZM143.202 14.3004L142.938 14.4272L142.938 14.4279L143.202 14.3004ZM138.013 12.6824L138.096 12.9632L138.099 12.9624L138.101 12.9617L138.013 12.6824ZM135.595 14.319L135.818 14.5087L135.818 14.5086L135.595 14.319ZM134.497 16.3649L134.213 16.295L134.212 16.2986L134.497 16.3649ZM134.256 29.7931V30.0861H134.549V29.7931H134.256ZM130.908 29.7931H130.615V30.0861H130.908V29.7931ZM130.908 10.167H134.088V9.58097H130.908V10.167ZM133.795 9.87397V12.7009H134.381V9.87397H133.795ZM134.316 12.8852C135.239 11.7442 136.204 10.9391 137.21 10.454L136.955 9.92624C135.853 10.4579 134.823 11.3267 133.86 12.5167L134.316 12.8852ZM137.21 10.454C138.22 9.96673 139.348 9.72061 140.598 9.72061V9.13461C139.269 9.13461 138.053 9.39684 136.955 9.92624L137.21 10.454ZM140.598 9.72061C143.351 9.72061 145.137 10.673 146.064 12.5165L146.588 12.2531C145.531 10.1536 143.499 9.13461 140.598 9.13461V9.72061ZM146.065 12.517C146.58 13.5362 146.851 15.0264 146.851 17.0158H147.437C147.437 14.988 147.163 13.3908 146.588 12.2525L146.065 12.517ZM146.851 17.0158V29.7931H147.437V17.0158H146.851ZM147.144 29.5001H143.741V30.0861H147.144V29.5001ZM144.034 29.7931V17.239H143.448V29.7931H144.034ZM144.034 17.239C144.034 15.9989 143.851 14.9709 143.465 14.1729L142.938 14.4279C143.271 15.1179 143.448 16.0489 143.448 17.239H144.034ZM143.466 14.1737C143.145 13.5062 142.688 12.9941 142.092 12.6515C141.498 12.3103 140.785 12.1476 139.965 12.1476V12.7336C140.708 12.7336 141.315 12.8809 141.8 13.1596C142.283 13.437 142.663 13.8548 142.938 14.4272L143.466 14.1737ZM139.965 12.1476C139.155 12.1476 138.471 12.2295 137.924 12.4031L138.101 12.9617C138.57 12.8128 139.189 12.7336 139.965 12.7336V12.1476ZM137.929 12.4015C136.951 12.6924 136.098 13.2732 135.371 14.1295L135.818 14.5086C136.48 13.7282 137.24 13.2179 138.096 12.9632L137.929 12.4015ZM135.371 14.1295C134.79 14.8149 134.399 15.5367 134.213 16.295L134.782 16.4348C134.943 15.7796 135.284 15.1375 135.818 14.5087L135.371 14.1295ZM134.212 16.2986C134.043 17.0257 133.963 18.0502 133.963 19.3593H134.549C134.549 18.0646 134.629 17.0928 134.783 16.4312L134.212 16.2986ZM133.963 19.3593V29.7931H134.549V19.3593H133.963ZM134.256 29.5001H130.908V30.0861H134.256V29.5001ZM131.201 29.7931V9.87397H130.615V29.7931H131.201Z" fill="black"/>
</g>
<path d="M9.39782 8.03497V30.8632C9.39782 31.6476 8.76186 32.2837 7.97735 32.2837C3.73123 32.2837 0.289062 28.8415 0.289062 24.5954V1.76714C0.289062 0.982642 0.925025 0.34668 1.70952 0.34668C5.95565 0.34668 9.39782 3.78884 9.39782 8.03497Z" fill="black" stroke="black" stroke-width="0.293"/>
<path d="M17.9689 1.66555L20.8715 12.7219C21.5813 15.4256 19.5418 18.0697 16.7465 18.0697C14.0968 18.0697 12.0884 15.679 12.5456 13.0691L14.5178 1.80943C14.666 0.963679 15.4005 0.346683 16.2591 0.34668C17.0625 0.346676 17.7649 0.888462 17.9689 1.66555Z" fill="black" stroke="black" stroke-width="0.293"/>
</g>
<defs>
<clipPath id="clip0_2064_1970">
<rect width="149.723" height="32.23" fill="white" transform="translate(0.140625 0.200195)"/>
</clipPath>
</defs>
</svg>
