<svg width="57" height="56" viewBox="0 0 57 56" fill="none" xmlns="http://www.w3.org/2000/svg">
<rect x="0.335938" width="56.0001" height="56" rx="24" fill="#F4E6D1"/>
<g filter="url(#filter0_i_2310_20073)">
<rect x="8.33594" y="8" width="40.0001" height="40" rx="16" fill="#D49A49"/>
</g>
<path d="M28.337 34.6937C27.7838 34.9328 27.2401 35.1484 26.701 35.3266C27.4838 36.9109 28.1541 37 28.337 37C28.5198 37 29.1854 36.9109 29.9729 35.3266C29.4385 35.1437 28.8901 34.9328 28.337 34.6937ZM37.2432 28C38.7901 30.1187 39.3198 32.2609 38.3495 34C37.4026 35.7016 35.4198 36.3109 32.9495 36.025C31.9182 38.4672 30.3432 40 28.337 40C26.3307 40 24.7557 38.4672 23.7245 36.025C21.2541 36.3109 19.2713 35.7062 18.3245 34C17.3541 32.2609 17.8838 30.1187 19.4307 28C17.8838 25.8813 17.3541 23.7391 18.3245 22C19.2713 20.2984 21.2541 19.6891 23.7245 19.975C24.7557 17.5328 26.3307 16 28.337 16C30.3432 16 31.9182 17.5328 32.9495 19.975C35.4198 19.6891 37.4026 20.2937 38.3495 22C39.3198 23.7391 38.7901 25.8813 37.2432 28ZM34.1588 31.1594C34.0791 31.825 33.976 32.4719 33.8448 33.0906C35.3354 33.1562 35.6541 32.6828 35.7291 32.5422C35.837 32.3453 36.0573 31.7031 35.1713 30.2875C34.8526 30.5828 34.5151 30.8734 34.1588 31.1594ZM33.8448 22.9141C33.976 23.5281 34.0791 24.175 34.1588 24.8453C34.5151 25.1312 34.8526 25.4219 35.1713 25.7172C36.0573 24.3016 35.837 23.6547 35.7291 23.4625C35.6541 23.3266 35.3354 22.8531 33.8448 22.9141ZM29.9729 20.6734C29.1854 19.0891 28.5198 19 28.337 19C28.1541 19 27.4885 19.0891 26.701 20.6734C27.2354 20.8562 27.7838 21.0672 28.337 21.3062C28.8901 21.0672 29.4338 20.8516 29.9729 20.6734ZM22.5198 24.8406C22.5995 24.1703 22.7026 23.5281 22.8338 22.9094C21.3432 22.8437 21.0245 23.3172 20.9495 23.4578C20.8416 23.6547 20.6213 24.2969 21.5073 25.7125C21.826 25.4172 22.1635 25.1266 22.5198 24.8406ZM21.5026 30.2875C20.6213 31.7031 20.837 32.3453 20.9448 32.5422C21.0198 32.6781 21.3385 33.1516 22.8291 33.0906C22.6979 32.4766 22.5948 31.8297 22.5151 31.1594C22.1588 30.8734 21.8213 30.5828 21.5026 30.2875ZM32.087 28C32.087 27.0054 31.6919 26.0516 30.9886 25.3483C30.2853 24.6451 29.3315 24.25 28.337 24.25C27.3424 24.25 26.3886 24.6451 25.6853 25.3483C24.982 26.0516 24.587 27.0054 24.587 28C24.587 28.9946 24.982 29.9484 25.6853 30.6517C26.3886 31.3549 27.3424 31.75 28.337 31.75C29.3315 31.75 30.2853 31.3549 30.9886 30.6517C31.6919 29.9484 32.087 28.9946 32.087 28ZM28.337 26.5C28.7348 26.5 29.1163 26.658 29.3976 26.9393C29.6789 27.2206 29.837 27.6022 29.837 28C29.837 28.3978 29.6789 28.7794 29.3976 29.0607C29.1163 29.342 28.7348 29.5 28.337 29.5C27.9391 29.5 27.5576 29.342 27.2763 29.0607C26.995 28.7794 26.837 28.3978 26.837 28C26.837 27.6022 26.995 27.2206 27.2763 26.9393C27.5576 26.658 27.9391 26.5 28.337 26.5Z" fill="#FCFCFC"/>
<defs>
<filter id="filter0_i_2310_20073" x="8.33594" y="8" width="40" height="42" filterUnits="userSpaceOnUse" color-interpolation-filters="sRGB">
<feFlood flood-opacity="0" result="BackgroundImageFix"/>
<feBlend mode="normal" in="SourceGraphic" in2="BackgroundImageFix" result="shape"/>
<feColorMatrix in="SourceAlpha" type="matrix" values="0 0 0 0 0 0 0 0 0 0 0 0 0 0 0 0 0 0 127 0" result="hardAlpha"/>
<feOffset dy="2"/>
<feGaussianBlur stdDeviation="2"/>
<feComposite in2="hardAlpha" operator="arithmetic" k2="-1" k3="1"/>
<feColorMatrix type="matrix" values="0 0 0 0 0 0 0 0 0 0 0 0 0 0 0 0 0 0 0.05 0"/>
<feBlend mode="normal" in2="shape" result="effect1_innerShadow_2310_20073"/>
</filter>
</defs>
</svg>
