<svg width="64" height="64" viewBox="0 0 64 64" fill="none" xmlns="http://www.w3.org/2000/svg">
<rect x="1.14286" y="1.14286" width="61.7143" height="61.7143" rx="26.2857" fill="#F4E6D1"/>
<rect x="1.14286" y="1.14286" width="61.7143" height="61.7143" rx="26.2857" stroke="#FCFCFC" stroke-width="2.28571"/>
<g filter="url(#filter0_i_2310_20296)">
<rect x="9.14062" y="9.14307" width="45.7143" height="45.7143" rx="18.2857" fill="#D49A49"/>
</g>
<g clip-path="url(#clip0_2310_20296)">
<path d="M26.5212 18C27.4694 18 28.2355 18.7661 28.2355 19.7143V21.4286H35.0926V19.7143C35.0926 18.7661 35.8587 18 36.8069 18C37.7551 18 38.5212 18.7661 38.5212 19.7143V21.4286H41.0926C42.5123 21.4286 43.6641 22.5804 43.6641 24V26.5714H19.6641V24C19.6641 22.5804 20.8158 21.4286 22.2355 21.4286H24.8069V19.7143C24.8069 18.7661 25.573 18 26.5212 18ZM19.6641 28.2857H43.6641V42.8571C43.6641 44.2768 42.5123 45.4286 41.0926 45.4286H22.2355C20.8158 45.4286 19.6641 44.2768 19.6641 42.8571V28.2857ZM23.0926 32.5714V34.2857C23.0926 34.7571 23.4783 35.1429 23.9498 35.1429H25.6641C26.1355 35.1429 26.5212 34.7571 26.5212 34.2857V32.5714C26.5212 32.1 26.1355 31.7143 25.6641 31.7143H23.9498C23.4783 31.7143 23.0926 32.1 23.0926 32.5714ZM29.9498 32.5714V34.2857C29.9498 34.7571 30.3355 35.1429 30.8069 35.1429H32.5212C32.9926 35.1429 33.3783 34.7571 33.3783 34.2857V32.5714C33.3783 32.1 32.9926 31.7143 32.5212 31.7143H30.8069C30.3355 31.7143 29.9498 32.1 29.9498 32.5714ZM37.6641 31.7143C37.1926 31.7143 36.8069 32.1 36.8069 32.5714V34.2857C36.8069 34.7571 37.1926 35.1429 37.6641 35.1429H39.3783C39.8498 35.1429 40.2355 34.7571 40.2355 34.2857V32.5714C40.2355 32.1 39.8498 31.7143 39.3783 31.7143H37.6641ZM23.0926 39.4286V41.1429C23.0926 41.6143 23.4783 42 23.9498 42H25.6641C26.1355 42 26.5212 41.6143 26.5212 41.1429V39.4286C26.5212 38.9571 26.1355 38.5714 25.6641 38.5714H23.9498C23.4783 38.5714 23.0926 38.9571 23.0926 39.4286ZM30.8069 38.5714C30.3355 38.5714 29.9498 38.9571 29.9498 39.4286V41.1429C29.9498 41.6143 30.3355 42 30.8069 42H32.5212C32.9926 42 33.3783 41.6143 33.3783 41.1429V39.4286C33.3783 38.9571 32.9926 38.5714 32.5212 38.5714H30.8069ZM36.8069 39.4286V41.1429C36.8069 41.6143 37.1926 42 37.6641 42H39.3783C39.8498 42 40.2355 41.6143 40.2355 41.1429V39.4286C40.2355 38.9571 39.8498 38.5714 39.3783 38.5714H37.6641C37.1926 38.5714 36.8069 38.9571 36.8069 39.4286Z" fill="#FCFCFC"/>
</g>
<defs>
<filter id="filter0_i_2310_20296" x="9.14062" y="9.14307" width="45.7109" height="48.0001" filterUnits="userSpaceOnUse" color-interpolation-filters="sRGB">
<feFlood flood-opacity="0" result="BackgroundImageFix"/>
<feBlend mode="normal" in="SourceGraphic" in2="BackgroundImageFix" result="shape"/>
<feColorMatrix in="SourceAlpha" type="matrix" values="0 0 0 0 0 0 0 0 0 0 0 0 0 0 0 0 0 0 127 0" result="hardAlpha"/>
<feOffset dy="2.28571"/>
<feGaussianBlur stdDeviation="2.28571"/>
<feComposite in2="hardAlpha" operator="arithmetic" k2="-1" k3="1"/>
<feColorMatrix type="matrix" values="0 0 0 0 0 0 0 0 0 0 0 0 0 0 0 0 0 0 0.05 0"/>
<feBlend mode="normal" in2="shape" result="effect1_innerShadow_2310_20296"/>
</filter>
<clipPath id="clip0_2310_20296">
<rect width="24" height="27.4286" fill="white" transform="translate(19.6641 18)"/>
</clipPath>
</defs>
</svg>
