<svg width="64" height="64" viewBox="0 0 64 64" fill="none" xmlns="http://www.w3.org/2000/svg">
<rect x="1.14286" y="1.14286" width="61.7143" height="61.7143" rx="26.2857" fill="#F4E6D1"/>
<rect x="1.14286" y="1.14286" width="61.7143" height="61.7143" rx="26.2857" stroke="#FCFCFC" stroke-width="2.28571"/>
<g filter="url(#filter0_i_2310_20250)">
<rect x="9.14062" y="9.14307" width="45.7143" height="45.7143" rx="18.2857" fill="#D49A49"/>
</g>
<g clip-path="url(#clip0_2310_20250)">
<path d="M27.7176 19.5718C27.7176 18.8593 27.1444 18.2861 26.4319 18.2861C25.7194 18.2861 25.1462 18.8593 25.1462 19.5718V21.7147C23.2551 21.7147 21.7176 23.2522 21.7176 25.1433H19.5748C18.8623 25.1433 18.2891 25.7165 18.2891 26.429C18.2891 27.1415 18.8623 27.7147 19.5748 27.7147H21.7176V30.7147H19.5748C18.8623 30.7147 18.2891 31.2879 18.2891 32.0004C18.2891 32.7129 18.8623 33.2861 19.5748 33.2861H21.7176V36.2861H19.5748C18.8623 36.2861 18.2891 36.8593 18.2891 37.5718C18.2891 38.2843 18.8623 38.8576 19.5748 38.8576H21.7176C21.7176 40.7486 23.2551 42.2861 25.1462 42.2861V44.429C25.1462 45.1415 25.7194 45.7147 26.4319 45.7147C27.1444 45.7147 27.7176 45.1415 27.7176 44.429V42.2861H30.7176V44.429C30.7176 45.1415 31.2908 45.7147 32.0033 45.7147C32.7158 45.7147 33.2891 45.1415 33.2891 44.429V42.2861H36.2891V44.429C36.2891 45.1415 36.8623 45.7147 37.5748 45.7147C38.2873 45.7147 38.8605 45.1415 38.8605 44.429V42.2861C40.7516 42.2861 42.2891 40.7486 42.2891 38.8576H44.4319C45.1444 38.8576 45.7176 38.2843 45.7176 37.5718C45.7176 36.8593 45.1444 36.2861 44.4319 36.2861H42.2891V33.2861H44.4319C45.1444 33.2861 45.7176 32.7129 45.7176 32.0004C45.7176 31.2879 45.1444 30.7147 44.4319 30.7147H42.2891V27.7147H44.4319C45.1444 27.7147 45.7176 27.1415 45.7176 26.429C45.7176 25.7165 45.1444 25.1433 44.4319 25.1433H42.2891C42.2891 23.2522 40.7516 21.7147 38.8605 21.7147V19.5718C38.8605 18.8593 38.2873 18.2861 37.5748 18.2861C36.8623 18.2861 36.2891 18.8593 36.2891 19.5718V21.7147H33.2891V19.5718C33.2891 18.8593 32.7158 18.2861 32.0033 18.2861C31.2908 18.2861 30.7176 18.8593 30.7176 19.5718V21.7147H27.7176V19.5718ZM26.8605 25.1433H37.1462C38.0944 25.1433 38.8605 25.9093 38.8605 26.8576V37.1433C38.8605 38.0915 38.0944 38.8576 37.1462 38.8576H26.8605C25.9123 38.8576 25.1462 38.0915 25.1462 37.1433V26.8576C25.1462 25.9093 25.9123 25.1433 26.8605 25.1433ZM37.1462 26.8576H26.8605V37.1433H37.1462V26.8576Z" fill="#FCFCFC"/>
</g>
<defs>
<filter id="filter0_i_2310_20250" x="9.14062" y="9.14307" width="45.7109" height="48.0001" filterUnits="userSpaceOnUse" color-interpolation-filters="sRGB">
<feFlood flood-opacity="0" result="BackgroundImageFix"/>
<feBlend mode="normal" in="SourceGraphic" in2="BackgroundImageFix" result="shape"/>
<feColorMatrix in="SourceAlpha" type="matrix" values="0 0 0 0 0 0 0 0 0 0 0 0 0 0 0 0 0 0 127 0" result="hardAlpha"/>
<feOffset dy="2.28571"/>
<feGaussianBlur stdDeviation="2.28571"/>
<feComposite in2="hardAlpha" operator="arithmetic" k2="-1" k3="1"/>
<feColorMatrix type="matrix" values="0 0 0 0 0 0 0 0 0 0 0 0 0 0 0 0 0 0 0.05 0"/>
<feBlend mode="normal" in2="shape" result="effect1_innerShadow_2310_20250"/>
</filter>
<clipPath id="clip0_2310_20250">
<rect width="27.4286" height="27.4286" fill="white" transform="translate(18.2891 18.2861)"/>
</clipPath>
</defs>
</svg>
