<svg width="272" height="113" viewBox="0 0 272 113" fill="none" xmlns="http://www.w3.org/2000/svg">
<g clip-path="url(#clip0_2196_1687)">
<path d="M49.8035 0.235776C25.4575 3.02004 6.04654 20.9054 0.829533 45.3032C-0.157468 50.0695 -0.298469 60.9234 0.594531 65.8313C1.91053 73.2875 5.38853 81.7818 9.66553 88.1998C12.6265 92.5886 20.4755 100.234 25.3165 103.395C42.0015 114.296 63.4805 115.523 81.1055 106.604C96.9915 98.5818 108.319 83.3863 111.327 66.1144C112.22 60.8762 112.22 51.674 111.374 46.7189C107.285 23.6425 89.6595 5.52117 66.9115 0.990835C62.2585 0.0942056 54.4095 -0.283328 49.8035 0.235776ZM64.8435 4.05826C72.0345 5.33241 79.8835 8.5414 85.8995 12.647C91.6335 16.5167 98.3075 23.8313 101.88 30.0133C103.478 32.8448 106.862 40.82 106.486 40.82C106.298 40.82 99.6705 40.82 91.7275 40.82L77.2515 40.7729L77.2515 57.2425C77.2515 75.647 77.4395 74.5616 73.7735 75.7414C71.0475 76.638 64.2325 76.1661 62.1645 74.9863L60.5665 74.0425L60.4255 59.5077L60.3315 44.9729L67.7105 45.1144L75.0895 45.256L75.1365 43.038L75.2305 40.82L63.6685 40.82L52.1065 40.82L52.0125 53.9391C51.9185 71.5886 51.3545 74.5144 47.0305 79.3279C43.2705 83.4807 38.1475 84.7077 32.0845 82.82C30.1575 82.2537 28.0425 81.4987 27.3375 81.1212C26.5855 80.7436 26.0215 80.6493 26.0215 80.8852C26.0215 81.6875 31.4265 86.1234 34.0115 87.3976L36.5495 88.6717L54.5035 88.8605C73.9615 89.0964 78.8495 88.7189 82.4215 86.9257C86.2285 84.9908 86.1815 85.274 86.1815 63.9436L86.1345 45.3032L96.9445 45.1616L107.755 45.0672L108.131 47.2852C108.319 48.5594 108.507 52.9481 108.46 57.1009C108.413 66.5391 107.285 71.3054 103.149 79.7526C97.7435 90.7009 89.5655 98.8178 78.5675 104.056C58.9215 113.447 35.5155 109.672 19.7235 94.5706C8.91353 84.283 3.27353 70.9751 3.36753 55.9212C3.36753 46.6245 5.38853 38.838 9.75954 30.7683L11.9685 26.6627L13.9425 27.7953C15.0235 28.456 22.3555 32.6088 30.2515 37.0448C43.1765 44.3594 44.8215 45.1616 47.0775 45.3032L49.5215 45.3976L49.5215 43.1324L49.5215 40.82L47.1245 40.82C45.0095 40.82 44.1635 40.4897 39.9805 37.847C34.6695 34.5436 35.0925 35.1571 31.8965 25.6245C29.9225 19.6785 29.8755 19.5841 29.1235 20.7639C28.1365 22.274 28.1365 22.3684 29.9695 27.8425C30.8625 30.438 31.5205 32.6088 31.4735 32.656C31.4265 32.7504 27.6195 30.6268 23.0605 28.0313L14.7415 23.265L16.1985 21.3773C18.2195 18.8762 23.5775 14.2515 27.6195 11.6088C33.1185 8.06948 38.7585 5.89871 47.8765 3.8695C49.8035 3.44478 62.1645 3.53915 64.8435 4.05826Z" fill="white"/>
<path d="M31.6605 19.0646C31.0495 20.5747 31.4255 23.5477 32.1775 23.0758C33.0235 22.6039 33.5405 20.5747 33.2585 19.1117C32.8825 17.3185 32.4125 17.3185 31.6605 19.0646Z" fill="white"/>
<path d="M34.3886 22.6989C32.9786 25.0112 32.8376 25.955 33.6836 28.7393L34.2476 30.627L35.7986 28.2674C36.5976 26.9461 37.3026 25.5303 37.3026 25.0584C37.3026 24.0674 36.2216 20.5281 35.8926 20.5281C35.7516 20.5281 35.0936 21.5191 34.3886 22.6989Z" fill="white"/>
<path d="M23.9546 22.2739C23.8136 22.4154 24.1426 23.3593 24.6596 24.3503C25.2706 25.5772 26.1166 26.4267 27.2446 26.8986C28.1846 27.2761 29.0306 27.6064 29.1246 27.6064C29.4066 27.6064 28.1846 25.0109 27.4796 24.1615C26.6806 23.2177 24.3306 21.9435 23.9546 22.2739Z" fill="white"/>
<path d="M32.0861 55.7323C29.4541 56.5346 25.4121 60.0267 24.0961 62.6222C23.0151 64.7458 22.0751 69.3705 22.4981 70.4559C22.7331 71.0694 22.9681 70.8806 23.6731 69.748C24.9891 67.5301 27.7621 64.9346 29.1721 64.6042C30.6761 64.2267 31.7101 64.793 32.5561 66.5391C33.1671 67.8132 33.1201 67.9548 32.1801 68.6155C29.4541 70.5503 27.9971 72.1076 26.7751 74.3728L25.4121 76.8267L26.5401 77.7233C30.5351 80.8851 35.9871 81.7818 40.5931 80.0357C45.1991 78.2896 48.8181 73.8065 49.3821 69.1346C49.6171 67.1053 49.5231 66.8222 48.5361 66.2559C47.8311 65.8312 45.8101 65.5952 42.9431 65.5952C40.4521 65.548 38.1961 65.4065 37.8671 65.1705C37.5851 64.9818 37.3031 64.0851 37.3031 63.2357C37.3031 60.6402 38.7601 59.9795 43.7891 60.3098L47.8311 60.5458L45.9511 58.7525C42.3791 55.4492 36.8801 54.2222 32.0861 55.7323ZM37.9611 68.9458C39.1831 69.4177 38.8541 70.0784 37.0211 70.8334C35.0001 71.6829 34.7181 71.5413 35.4701 69.8896C36.0341 68.6627 36.5981 68.4267 37.9611 68.9458Z" fill="white"/>
</g>
<path d="M128.004 53.0513V32.3447H139.76V35.0822H130.954V41.3059L135.574 41.3293V44.0668L130.954 44.0434V53.0513H128.004Z" fill="#F8F8F8"/>
<path d="M153.483 53.4026C150.967 53.4026 148.977 52.5135 147.536 50.7353C146.095 48.9571 145.363 46.2664 145.363 42.6632C145.363 39.06 146.095 36.346 147.536 34.5912C148.977 32.8364 150.967 31.9473 153.483 31.9473C155.999 31.9473 157.988 32.8364 159.429 34.5912C160.87 36.346 161.602 39.0366 161.602 42.6632C161.602 46.2898 160.87 48.9571 159.429 50.7353C157.966 52.5135 155.976 53.4026 153.483 53.4026ZM153.483 50.6885C155.084 50.6885 156.319 50.0802 157.188 48.8401C158.057 47.6001 158.514 45.8219 158.514 43.4353V41.9145C158.514 39.528 158.08 37.7264 157.188 36.5097C156.319 35.2697 155.084 34.6614 153.483 34.6614C151.882 34.6614 150.67 35.2697 149.8 36.5097C148.908 37.7498 148.474 39.528 148.474 41.9145V43.4353C148.474 45.8219 148.908 47.6234 149.8 48.8401C150.67 50.0802 151.905 50.6885 153.483 50.6885Z" fill="#F8F8F8"/>
<path d="M168.098 53.0513V32.3447H171.048V50.2437H179.419V53.0513C179.442 53.0513 168.098 53.0513 168.098 53.0513Z" fill="#F8F8F8"/>
<path d="M185.137 53.0513V32.3447H188.087V53.0513H185.137Z" fill="#F8F8F8"/>
<path d="M199.546 53.0513L193.371 32.3447H196.596L201.353 49.1908H201.468L206.339 32.3447H209.221L203.046 53.0513H199.546Z" fill="#F8F8F8"/>
<path d="M222.03 53.4026C219.514 53.4026 217.524 52.5135 216.083 50.7353C214.642 48.9571 213.91 46.2664 213.91 42.6632C213.91 39.06 214.642 36.346 216.083 34.5912C217.524 32.8364 219.514 31.9473 222.03 31.9473C224.545 31.9473 226.535 32.8364 227.976 34.5912C229.417 36.346 230.149 39.0366 230.149 42.6632C230.149 46.2898 229.417 48.9571 227.976 50.7353C226.535 52.5135 224.545 53.4026 222.03 53.4026ZM222.03 50.6885C223.631 50.6885 224.866 50.0802 225.735 48.8401C226.604 47.6001 227.061 45.8219 227.061 43.4353V41.9145C227.061 39.528 226.627 37.7264 225.735 36.5097C224.866 35.2697 223.631 34.6614 222.03 34.6614C220.429 34.6614 219.216 35.2697 218.347 36.5097C217.478 37.7498 217.021 39.528 217.021 41.9145V43.4353C217.021 45.8219 217.455 47.6234 218.347 48.8401C219.216 50.0802 220.451 50.6885 222.03 50.6885Z" fill="#F8F8F8"/>
<path d="M255.375 53.0513L261.848 32.3447H265.53L272.003 53.0513H268.846L263.7 35.8543L258.348 53.0513H255.375Z" fill="#F8F8F8"/>
<path d="M236.578 47.3897C236.578 45.5413 236.578 41.4936 236.578 41.4936C236.578 41.4936 242.021 41.517 244.583 41.517C244.903 41.517 245.223 41.4936 245.52 41.4234C246.39 41.2362 247.144 40.6746 247.533 39.8557C247.899 39.0836 247.922 38.1945 247.785 37.3522C247.67 36.6269 247.419 35.808 246.847 35.3401C246.412 34.9891 245.841 34.9189 245.269 34.8955C243.988 34.8487 242.661 34.8721 241.381 34.8721C240.1 34.8721 238.682 34.8721 237.332 34.8721C237.081 34.8721 236.829 34.8721 236.555 34.8721V32.1112C236.555 32.1112 245.589 32.0644 246.778 32.2984C247.327 32.4154 247.945 32.5324 248.402 32.86C248.86 33.1875 249.248 33.5151 249.592 33.9362C249.935 34.3574 250.209 34.8955 250.438 35.4103C251.055 36.9077 251.193 38.5923 250.712 40.1599C250.232 41.7509 249.203 42.8506 247.716 43.5057C247.442 43.6227 247.442 43.6227 247.556 43.9269C248.837 46.9451 250.095 49.9868 251.376 53.005C251.49 53.239 251.467 53.2624 251.215 53.2624C250.301 53.2624 249.386 53.2624 248.448 53.2624C248.242 53.2624 248.151 53.1922 248.082 53.005C246.938 50.1505 245.795 47.2961 244.651 44.4416C244.583 44.2544 244.468 44.1608 244.262 44.1608C242.799 44.1608 241.312 44.1608 239.848 44.1608C239.551 44.1608 239.528 44.1608 239.528 44.4884C239.528 47.2727 239.528 53.239 239.528 53.239H236.578C236.578 53.239 236.578 49.2147 236.578 47.3429V47.3897Z" fill="#F8F8F8"/>
<path d="M141.738 80.5298V59.7764H154.363V62.5372H144.689V68.5503H148.897V71.2878H144.689V77.7923H154.546V80.5532L141.738 80.5298Z" fill="#EDEDED"/>
<path d="M181.922 80.5298V59.7764H194.57V62.5372H184.895V68.5503H189.104V71.2878H184.895V77.7923H194.753V80.5532L181.922 80.5298Z" fill="#EDEDED"/>
<path d="M161.156 80.5297V59.7763H163.764L170.9 72.2939C171.037 72.5278 171.197 72.8554 171.357 73.2532C171.517 73.6509 171.746 74.1657 172.02 74.7974L172.112 74.774C172.112 74.1189 172.112 73.6041 172.089 73.2064C172.066 72.8086 172.066 72.5278 172.066 72.3407V59.7529H174.719V80.5063H172.158L164.976 67.8484C164.861 67.591 164.701 67.2635 164.518 66.8657C164.335 66.468 164.107 65.9532 163.832 65.2981L163.718 65.3449C163.764 65.9532 163.786 66.4446 163.809 66.8189C163.832 67.2167 163.832 67.5208 163.832 67.7548V80.4595L161.156 80.5297Z" fill="#EDEDED"/>
<path d="M229.382 80.5301C226.843 80.5301 224.876 79.641 223.504 77.8862C222.109 76.1314 221.445 73.4173 221.445 69.7907C221.445 66.1642 222.223 63.8244 223.687 62.0462C225.151 60.2914 227.186 59.4023 229.771 59.4023H236.175L231.303 62.4908C231.303 62.4908 231.029 62.1164 229.725 62.1164C228.078 62.1164 226.82 62.7248 225.928 63.9648C225.036 65.2049 224.533 66.6555 224.533 69.042V70.5628C224.533 72.9494 224.968 74.7744 225.814 75.991C226.66 77.2077 227.918 77.816 229.588 77.816C231.097 77.816 232.241 77.3481 232.996 76.3888C233.75 75.4295 234.139 74.0256 234.139 72.2007V70.6564L235.42 71.8731H229.107V69.2526H237.181V80.5535H235.26L234.665 77.9096C234.025 78.8221 233.27 79.5006 232.355 79.9218C231.463 80.3195 230.457 80.5301 229.382 80.5301Z" fill="#EDEDED"/>
<path d="M248.867 80.5298V72.1769L242.395 59.7764H245.619L250.468 69.2523H250.583L255.34 59.7764H258.267L251.818 72.1769V80.5298H248.867Z" fill="#EDEDED"/>
<path d="M201.343 74.7041C201.343 72.8557 201.343 68.808 201.343 68.808C201.343 68.808 206.787 68.8314 209.348 68.8314C209.668 68.8314 209.989 68.808 210.286 68.7378C211.155 68.5506 211.91 67.9891 212.299 67.1702C212.665 66.3981 212.688 65.509 212.55 64.6667C212.436 63.9414 212.184 63.1225 211.613 62.6545C211.178 62.3036 210.606 62.2334 210.034 62.21C208.754 62.1632 207.427 62.1866 206.146 62.1866C204.865 62.1866 203.447 62.1866 202.098 62.1866C201.846 62.1866 201.595 62.1866 201.32 62.1866V59.4257C201.32 59.4257 210.355 59.3789 211.544 59.6129C212.093 59.7299 212.71 59.8468 213.168 60.1744C213.602 60.502 214.014 60.8295 214.357 61.2507C214.7 61.6952 214.975 62.21 215.203 62.7247C215.821 64.2221 215.958 65.9067 215.478 67.4744C214.998 69.0654 213.968 70.165 212.482 70.8202C212.207 70.9372 212.207 70.9372 212.322 71.2413C213.602 74.2596 214.86 77.3012 216.141 80.3195C216.256 80.5534 216.233 80.5768 215.981 80.5768C215.066 80.5768 214.151 80.5768 213.214 80.5768C213.008 80.5768 212.916 80.5067 212.848 80.3195C211.704 77.465 210.56 74.6105 209.417 71.7561C209.348 71.5689 209.234 71.4753 209.028 71.4753C207.564 71.4753 206.078 71.4753 204.614 71.4753C204.316 71.4753 204.294 71.4753 204.294 71.8029C204.294 74.5871 204.294 80.5534 204.294 80.5534H201.343C201.343 80.5534 201.343 76.5291 201.343 74.6573V74.7041Z" fill="#EDEDED"/>
<defs>
<clipPath id="clip0_2196_1687">
<rect width="112.002" height="112.525" fill="white"/>
</clipPath>
</defs>
</svg>
