<svg width="46" height="48" viewBox="0 0 46 48" fill="none" xmlns="http://www.w3.org/2000/svg">
<path d="M45.827 15.6188C46.127 16.4344 45.8739 17.3438 45.227 17.925L41.1676 21.6188C41.2707 22.3969 41.327 23.1938 41.327 24C41.327 24.8062 41.2707 25.6031 41.1676 26.3812L45.227 30.075C45.8739 30.6562 46.127 31.5656 45.827 32.3812C45.4145 33.4969 44.9176 34.5656 44.3457 35.5969L43.9051 36.3562C43.2864 37.3875 42.5926 38.3625 41.8332 39.2812C41.2801 39.9562 40.3614 40.1812 39.5364 39.9187L34.3145 38.2594C33.0582 39.225 31.6707 40.0312 30.1895 40.6406L29.0176 45.9938C28.8301 46.8469 28.1739 47.5219 27.3114 47.6625C26.0176 47.8781 24.6864 47.9906 23.327 47.9906C21.9676 47.9906 20.6364 47.8781 19.3426 47.6625C18.4801 47.5219 17.8239 46.8469 17.6364 45.9938L16.4645 40.6406C14.9832 40.0312 13.5957 39.225 12.3395 38.2594L7.12698 39.9281C6.30198 40.1906 5.38323 39.9562 4.8301 39.2906C4.07073 38.3719 3.37698 37.3969 2.75823 36.3656L2.3176 35.6062C1.74573 34.575 1.24885 33.5062 0.836352 32.3906C0.536352 31.575 0.789477 30.6656 1.43635 30.0844L5.49573 26.3906C5.3926 25.6031 5.33635 24.8062 5.33635 24C5.33635 23.1938 5.3926 22.3969 5.49573 21.6188L1.43635 17.925C0.789477 17.3438 0.536352 16.4344 0.836352 15.6188C1.24885 14.5031 1.74573 13.4344 2.3176 12.4031L2.75823 11.6437C3.37698 10.6125 4.07073 9.6375 4.8301 8.71875C5.38323 8.04375 6.30198 7.81875 7.12698 8.08125L12.3489 9.74063C13.6051 8.775 14.9926 7.96875 16.4739 7.35938L17.6457 2.00625C17.8332 1.15312 18.4895 0.478125 19.352 0.3375C20.6457 0.1125 21.977 0 23.3364 0C24.6957 0 26.027 0.1125 27.3207 0.328125C28.1832 0.46875 28.8395 1.14375 29.027 1.99687L30.1989 7.35C31.6801 7.95938 33.0676 8.76562 34.3239 9.73125L39.5457 8.07187C40.3707 7.80937 41.2895 8.04375 41.8426 8.70938C42.602 9.62813 43.2957 10.6031 43.9145 11.6344L44.3551 12.3937C44.927 13.425 45.4239 14.4937 45.8364 15.6094L45.827 15.6188ZM23.3364 31.5C25.3255 31.5 27.2331 30.7098 28.6397 29.3033C30.0462 27.8968 30.8364 25.9891 30.8364 24C30.8364 22.0109 30.0462 20.1032 28.6397 18.6967C27.2331 17.2902 25.3255 16.5 23.3364 16.5C21.3472 16.5 19.4396 17.2902 18.0331 18.6967C16.6265 20.1032 15.8364 22.0109 15.8364 24C15.8364 25.9891 16.6265 27.8968 18.0331 29.3033C19.4396 30.7098 21.3472 31.5 23.3364 31.5Z" fill="#D49A49"/>
</svg>
