<svg width="48" height="42" viewBox="0 0 48 42" fill="none" xmlns="http://www.w3.org/2000/svg">
<path d="M6 3C6 1.34062 4.65938 0 3 0C1.34062 0 0 1.34062 0 3V34.5C0 38.6437 3.35625 42 7.5 42H45C46.6594 42 48 40.6594 48 39C48 37.3406 46.6594 36 45 36H7.5C6.675 36 6 35.325 6 34.5V3ZM44.1188 11.1188C45.2906 9.94688 45.2906 8.04375 44.1188 6.87188C42.9469 5.7 41.0437 5.7 39.8719 6.87188L30 16.7531L24.6188 11.3719C23.4469 10.2 21.5438 10.2 20.3719 11.3719L9.87188 21.8719C8.7 23.0437 8.7 24.9469 9.87188 26.1188C11.0438 27.2906 12.9469 27.2906 14.1188 26.1188L22.5 17.7469L27.8812 23.1281C29.0531 24.3 30.9563 24.3 32.1281 23.1281L44.1281 11.1281L44.1188 11.1188Z" fill="#D49A49"/>
</svg>
