<svg width="120" height="120" viewBox="0 0 120 120" fill="none" xmlns="http://www.w3.org/2000/svg">
<rect width="120" height="120" rx="60" fill="#8ED7C4"/>
<path d="M41.9954 49.1892C42.1628 49.2449 42.2464 49.4402 42.107 49.5797C41.8559 49.8307 41.5212 49.9423 41.4375 50.3329C41.3538 50.6397 41.4375 51.0302 41.6049 51.3092C41.6885 51.3092 41.7722 51.3092 41.828 51.3092C42.1349 51.3092 42.3859 51.2255 42.637 51.1418C42.637 51.0302 42.637 50.9186 42.5812 50.8071C42.5254 50.6955 42.4417 50.5839 42.3859 50.4723C42.3301 50.3329 42.4138 50.1934 42.5254 50.1655C42.5254 50.1097 42.5533 50.0539 42.6091 50.026C43.0554 49.8028 43.697 49.5239 43.8086 48.9939C43.9201 48.4081 43.3344 48.1849 43.0275 47.7944C42.9438 47.7107 42.9717 47.5712 43.0275 47.5155C43.0275 47.4039 43.1112 47.2923 43.2507 47.3481C43.9201 47.5991 44.757 47.4039 45.1754 46.7902C45.6217 46.0928 45.287 45.507 44.9244 44.8654C44.8128 44.6702 45.0359 44.4749 45.2312 44.5586C45.2312 44.5586 45.2312 44.5586 45.2591 44.5586C45.3707 44.4749 45.5102 44.4749 45.566 44.6144C46.626 46.9576 50.4197 47.1528 51.0334 44.3912C51.1171 44.0844 51.5634 44.1123 51.6192 44.4191C51.6471 44.447 51.6471 44.4749 51.675 44.5028C51.7865 45.0886 52.2329 45.6465 52.8744 45.6465C53.4881 45.6465 53.6834 45.1723 54.1576 44.8933C54.2134 44.8654 54.2692 44.8654 54.2971 44.8933C54.4087 44.8375 54.576 44.9491 54.5203 45.0886C54.325 45.7302 54.2971 46.4554 54.8271 46.9297C55.0782 47.1807 55.4408 47.3202 55.8034 47.3202C56.0824 47.3202 56.3334 47.1807 56.6124 47.2086C56.7798 47.2365 56.9471 47.4318 56.8355 47.5991C56.7798 47.6549 56.7519 47.7107 56.6961 47.7665C56.3613 48.5197 56.2218 49.3844 56.6682 50.1376C57.1703 50.9744 57.9513 51.086 58.8161 51.1976C59.0392 51.2255 59.0114 51.5044 58.844 51.5881C58.7045 51.8392 58.4813 52.2297 58.5929 52.5087C58.6208 52.5087 58.6487 52.5087 58.6766 52.5087C58.844 52.5087 58.9277 52.676 58.9277 52.8155C59.0671 52.8713 59.1508 52.955 59.0671 53.1502C59.0671 53.1781 59.0392 53.206 59.0114 53.206C58.8998 53.4013 58.8719 53.6524 58.9277 53.8476C58.9835 54.0987 59.2066 54.2103 59.4298 54.3218C59.4856 54.3497 59.5135 54.3776 59.5414 54.4334C59.5971 54.4334 59.6529 54.4055 59.7087 54.3776C59.7087 54.3218 59.7366 54.266 59.7645 54.2382C60.4898 53.5408 59.5135 52.955 59.9877 52.3692C60.3224 51.9508 60.9082 51.8113 61.2151 51.3092C61.7172 50.5002 61.6056 49.775 60.9919 49.0776C60.8803 48.9381 60.964 48.7707 61.1035 48.7707C61.1314 48.7149 61.1872 48.6591 61.2708 48.6591C62.024 48.7986 62.833 48.6591 63.2793 47.9897C63.7814 47.2365 63.4746 46.5949 63.1677 45.8696C63.084 45.6465 63.2793 45.3675 63.5024 45.4791C63.5582 45.4233 63.6977 45.3954 63.7535 45.507C64.2277 46.2881 65.7341 46.3718 66.5151 46.316C67.5472 46.2323 68.3562 45.6744 68.663 44.6702C68.7467 44.3633 69.2767 44.4191 69.2488 44.7538C69.2488 44.8096 69.2209 44.8375 69.2209 44.8933C69.2209 44.8933 69.2209 44.8933 69.2209 44.8654C69.3046 44.726 69.4999 44.8096 69.472 44.977C69.2767 46.3718 69.193 47.7665 70.1973 48.8823C71.1178 49.8865 72.2057 50.026 73.461 50.1934C73.6562 50.2213 73.6562 50.4444 73.5726 50.556C73.6004 50.5839 73.6004 50.6397 73.5726 50.6676C73.3215 51.365 73.0425 52.0902 73.3215 52.8155C73.461 53.2339 73.7957 53.5687 74.242 53.6524C74.5489 53.7082 74.7999 53.5966 75.0789 53.5408C75.2463 53.5129 75.4694 53.7082 75.3299 53.8755C75.2463 53.9871 75.1626 54.0708 75.051 54.1266C74.7162 54.4334 74.3257 54.8239 74.2141 55.2424C74.0747 55.7166 74.3257 55.9676 74.5768 56.3303C74.6326 56.3861 74.6047 56.4698 74.5768 56.5255V56.5534C74.4094 56.8045 74.2699 57.0556 74.2978 57.3903C74.3257 57.7529 74.5768 57.8645 74.8278 58.0598C74.8557 58.0877 74.8557 58.1156 74.8557 58.1156C75.4136 57.7808 75.6926 57.1113 75.4136 56.4698C75.3299 56.2745 75.4694 56.0792 75.6647 56.135C76.2784 56.2466 77.1152 56.2745 77.45 55.6329C77.8684 54.8239 77.1431 54.4613 76.641 54.1545C76.3899 54.1545 76.3899 53.7918 76.6131 53.736C77.5894 53.4292 78.4821 52.7039 78.761 51.6997C79.0679 50.5839 78.5379 49.6913 77.8963 48.8265C77.8126 48.7149 77.8684 48.6034 77.9521 48.5197C77.9242 48.4081 77.98 48.2407 78.1194 48.2407C78.5937 48.1849 79.04 48.5197 79.5421 48.436C80.1558 48.3244 79.6258 47.627 79.2631 47.5155C79.2073 47.4876 79.2073 47.4039 79.2631 47.4039C79.291 47.4039 79.3189 47.4039 79.3468 47.4039C79.3468 47.2644 79.4305 47.1528 79.5979 47.2086C80.9089 47.6828 83.6427 48.0734 83.6148 45.9254C83.5869 44.5586 82.4153 44.1681 81.5505 43.4707C81.3553 43.4986 81.2437 43.3591 81.2716 43.2196C81.2716 43.2196 81.2716 43.2196 81.2437 43.1917C81.16 43.108 81.2158 42.9407 81.3553 42.9407C81.4111 42.9407 81.4947 42.9407 81.5505 42.9686C83.0569 42.3549 84.6469 41.6575 84.6748 39.7327C84.7027 38.338 83.8379 36.8874 82.8895 35.9111C80.9926 33.9306 77.7289 33.4285 76.1947 36.1343C76.1389 36.2459 76.0273 36.2738 75.9436 36.2459C75.8042 36.4132 75.4973 36.3017 75.4694 36.0506C75.302 33.4285 73.712 31.0853 70.7552 31.4758C68.5236 31.7548 66.543 33.8469 66.1246 35.9948C66.1246 36.0227 66.1525 36.0785 66.1525 36.1064C66.2083 36.3295 65.8735 36.4969 65.7619 36.2738C64.8972 34.7674 63.6419 33.5958 61.773 33.9306C59.8203 34.2932 58.844 35.9669 58.8161 37.8359C58.8161 37.8917 58.7882 37.9196 58.7603 37.9475C58.7603 38.0311 58.7603 38.0869 58.7603 38.1706C58.7324 38.338 58.4813 38.4775 58.3977 38.2822C58.1466 37.6964 58.0629 37.0548 57.2819 36.9711C56.6403 36.9153 56.2776 37.3338 55.7197 37.4453C55.5245 37.5569 55.2176 37.3896 55.3013 37.1385C55.6918 36.1901 55.8034 35.1301 54.9387 34.3769C54.2692 33.7911 52.7908 33.6237 52.205 34.4606C52.1771 34.5164 52.1771 34.5443 52.1492 34.5722C52.1492 34.5722 52.1492 34.5722 52.1492 34.6001C52.0655 34.7674 51.7307 34.7116 51.7586 34.4885C51.7586 34.4885 51.7586 34.4606 51.7308 34.4606C51.0892 32.8706 50.5592 31.5874 48.9412 30.7226C47.407 29.9137 45.566 29.8579 43.8922 30.1926C40.5448 30.8621 37.7274 33.2053 38.648 36.8874C38.6759 36.999 38.6201 37.0827 38.5364 37.1385C38.5364 37.2222 38.5085 37.278 38.4248 37.3338C36.6674 38.6169 35.4958 40.3185 36.3327 42.5501C37.0859 44.5586 39.0385 45.1723 41.0191 45.2281C41.1306 45.2281 41.1864 45.3396 41.1864 45.4233C41.2143 45.4233 41.2422 45.4233 41.2701 45.4233C41.4375 45.4233 41.4933 45.6744 41.3538 45.7581C40.6006 46.2044 39.4012 46.7623 40.0148 47.8502C40.3775 48.5197 41.1864 48.9381 41.8838 49.1613C41.9675 49.1334 41.9954 49.1613 41.9954 49.1892ZM81.9411 36.1343C83.8658 37.3896 85.0932 40.8485 82.4153 41.9086C82.2479 41.9643 82.1363 41.7133 82.3037 41.6296C84.7585 40.4022 83.3358 37.6127 81.8574 36.2459C81.7737 36.1901 81.8574 36.0785 81.9411 36.1343ZM80.0163 35.8553C81.439 36.1622 82.5826 37.4175 82.8616 38.8122C82.9174 39.0075 82.6105 39.1191 82.5547 38.8959C82.1642 37.529 81.2437 36.5527 79.9605 35.9669C79.9047 35.9111 79.9326 35.8274 80.0163 35.8553ZM76.7247 51.9508C77.3663 51.5044 78.0079 50.3886 77.2547 49.7471C77.1431 49.6634 77.2826 49.5239 77.3942 49.5797C77.8405 49.775 77.9521 50.305 77.8684 50.7792C77.7568 51.3929 77.3663 51.895 76.8084 52.146C76.7247 52.1739 76.641 52.0066 76.7247 51.9508ZM76.2784 52.9271C77.45 52.7318 78.1752 51.8671 78.1194 50.6955C78.1194 50.556 78.3426 50.5281 78.3705 50.6676C78.6494 51.9508 77.6173 53.206 76.3063 53.0666C76.2226 53.0387 76.1947 52.9271 76.2784 52.9271ZM70.8667 47.2644C71.1457 47.627 71.4525 47.9339 71.8431 48.157C72.2057 48.3802 72.5962 48.4081 72.9868 48.5197C73.1541 48.5755 73.0983 48.7707 72.9589 48.7986C72.0662 48.9102 71.0899 48.1291 70.7273 47.376C70.6715 47.2365 70.7831 47.1528 70.8667 47.2644ZM70.1136 45.4233C70.1694 45.3396 70.2809 45.4233 70.253 45.507C69.9462 46.1486 70.1136 47.0412 70.5041 47.627C70.8667 48.157 71.341 48.3802 71.8989 48.6313C72.0104 48.687 71.9546 48.9102 71.8152 48.9102C70.3646 48.7149 69.1651 46.7065 70.1136 45.4233ZM57.6724 48.7707C57.7282 49.1055 57.9234 49.4123 58.2024 49.6076C58.4813 49.8028 58.7603 49.775 59.0671 49.8586C59.1787 49.8865 59.2066 50.026 59.095 50.0818C58.7603 50.2492 58.2861 50.0539 58.0071 49.8307C57.6724 49.5797 57.4492 49.2171 57.4213 48.7707C57.4492 48.6591 57.6724 48.6313 57.6724 48.7707ZM57.254 47.906C57.3377 47.8223 57.4771 47.8781 57.4213 47.9897C57.1982 48.436 57.0587 48.9381 57.254 49.4123C57.4213 49.8307 57.7561 49.9981 58.1466 50.1655C58.2861 50.2213 58.2582 50.3886 58.1187 50.4165C57.5887 50.4723 57.1145 50.026 56.9471 49.5797C56.724 48.9939 56.8913 48.3802 57.254 47.906ZM53.7392 34.4606C54.2692 34.5443 54.855 35.0464 54.7992 35.6043C54.7992 35.7438 54.6039 35.7995 54.5481 35.6601C54.325 35.2416 54.1855 34.879 53.6555 34.7674C53.4045 34.7116 53.1534 34.7674 52.9302 34.879C52.8187 34.9348 52.7071 35.0464 52.5676 35.0743C52.5397 35.0743 52.4839 35.0464 52.4839 35.0185C52.5955 34.5443 53.3487 34.3769 53.7392 34.4606ZM48.6902 45.6186C47.6302 46.0649 46.3191 45.0886 45.9286 44.1402C45.8728 44.0286 46.0681 43.9728 46.1239 44.0565C46.3749 44.5028 46.7375 44.8654 47.1839 45.1165C47.6581 45.3675 48.1323 45.3396 48.6344 45.3675C48.8297 45.3954 48.8297 45.5628 48.6902 45.6186ZM47.2675 44.2238C47.5465 44.4749 47.9091 44.6702 48.2997 44.726C48.6623 44.7817 48.997 44.6702 49.3597 44.6981C49.4992 44.6981 49.527 44.8654 49.4155 44.9491C48.746 45.4512 47.6023 44.8933 47.1281 44.3633C47.0165 44.2517 47.156 44.1123 47.2675 44.2238ZM39.5685 36.0227C38.9269 33.6237 41.0749 31.5595 43.2228 30.9737C43.3622 30.9458 43.4738 31.1411 43.3343 31.2248C41.2701 32.1174 39.4848 33.4843 39.7638 35.9948C39.7638 36.1064 39.5964 36.1064 39.5685 36.0227ZM40.9912 34.4606C40.9354 34.5443 40.8517 34.4606 40.8796 34.4048C41.828 32.3406 44.3107 30.9179 46.5702 31.3363C46.7375 31.3642 46.6818 31.6432 46.5423 31.6432C44.1991 31.6153 42.3301 32.4521 40.9912 34.4606Z" fill="white"/>
<path d="M39.5676 68.6047C39.6792 68.6326 39.6234 68.7721 39.5397 68.7721C38.7586 68.8836 37.8939 68.7442 37.1128 68.521C38.4239 69.6926 41.1018 69.7763 42.5524 69.6926C44.784 69.581 46.7924 68.7721 48.2151 67.0147C48.243 66.9868 48.243 66.9868 48.2708 66.9868C46.625 62.3562 45.314 57.3909 44.2819 52.593C44.2819 52.5372 44.2819 52.4814 44.2819 52.4535C44.1424 52.3698 44.1703 52.1466 44.3655 52.1187C45.0071 52.0629 45.5929 51.3656 45.3977 50.724C45.2024 50.0266 44.4771 49.8592 43.8634 49.9708C43.8076 49.9708 43.7519 49.9708 43.6961 49.9429C43.4171 50.1103 43.1103 50.2498 42.8034 50.3335C42.9429 50.5287 42.9987 50.8077 42.9708 51.0308C43.194 50.9471 43.4171 50.8635 43.6682 50.8077C43.7519 50.7798 43.8355 50.8914 43.7797 50.9471C42.9708 52.314 40.5439 51.9514 39.5676 51.0308C39.4002 50.8635 39.6234 50.6124 39.7908 50.724C40.1813 50.9471 40.5718 51.1145 40.9902 51.2261C40.795 50.9471 40.7113 50.6124 40.8229 50.2219C40.8508 50.0824 40.9345 49.915 41.0181 49.7756C40.2371 49.6082 38.8702 49.4966 38.5634 50.3056C38.2565 51.1145 38.8702 51.9514 39.4281 52.5093C39.4839 52.5651 39.456 52.6766 39.4002 52.7324C39.4839 52.8161 39.5118 52.9277 39.4839 53.0393C39.4839 53.0951 39.456 53.1509 39.456 53.2066C39.8744 53.1787 40.2929 53.2066 40.7113 53.2624C40.8508 53.2903 40.8508 53.4856 40.7113 53.4856C40.2929 53.4577 39.8466 53.4298 39.4281 53.4298C39.3444 53.7924 39.2886 54.1551 39.205 54.5177C39.6513 54.5177 40.0976 54.5177 40.5439 54.5735C40.6555 54.5735 40.6555 54.7409 40.5439 54.7409C40.0976 54.7409 39.6234 54.713 39.1771 54.6851C39.1213 55.0198 39.0376 55.3546 38.9818 55.6893C39.5118 55.7172 40.0139 55.7172 40.5439 55.6893C40.6555 55.6893 40.6834 55.8567 40.5718 55.8846C40.0418 55.9683 39.4839 55.9404 38.9539 55.8846C38.8702 56.2751 38.8144 56.6656 38.7308 57.0283C39.3723 57.0562 40.0139 57.0283 40.6555 56.9725C40.7671 56.9725 40.795 57.1398 40.6834 57.1677C40.0139 57.2514 39.3444 57.2793 38.675 57.2235C38.5913 57.6977 38.4797 58.1441 38.396 58.6183C39.0655 58.6462 39.7629 58.6183 40.4323 58.6183C40.5439 58.6183 40.5439 58.7856 40.4323 58.7856C39.735 58.8414 39.0655 58.8135 38.3681 58.7578C38.2844 59.1483 38.2007 59.5388 38.1171 59.9572C38.8423 59.9293 39.5676 59.9293 40.2929 59.9851C40.4045 59.9851 40.4045 60.1804 40.2929 60.1804C39.5397 60.1525 38.8144 60.1246 38.0613 60.1246C38.0055 60.4315 37.9497 60.7104 37.8939 61.0173C37.8939 61.073 37.866 61.1567 37.866 61.2125C38.7308 61.1288 39.6234 61.1567 40.4881 61.2962C40.5997 61.3241 40.5718 61.4915 40.4602 61.4915C39.5676 61.4078 38.7029 61.3799 37.8102 61.4078C37.7265 61.7983 37.6428 62.1888 37.5592 62.6073C38.4518 62.5794 39.3723 62.5515 40.265 62.6073C40.3766 62.6073 40.3766 62.8025 40.265 62.8025C39.3444 62.8583 38.4239 62.8304 37.5034 62.8025C37.4476 63.1373 37.3639 63.4441 37.3081 63.7789C38.1729 63.7789 39.0376 63.8068 39.9302 63.8625C40.0418 63.8625 40.0418 64.0578 39.9302 64.0578C39.0376 64.0578 38.1729 64.002 37.2802 63.9462C37.2244 64.281 37.1407 64.6436 37.0849 64.9783C38.1171 64.9504 39.1771 64.9504 40.2092 65.0062C40.3208 65.0062 40.3208 65.1736 40.2092 65.2015C39.1492 65.2294 38.1171 65.2015 37.057 65.1178C37.057 65.1457 37.0292 65.2015 37.0292 65.2294C36.9734 65.5641 36.9176 65.8989 36.8618 66.2057C37.336 66.122 37.866 66.1499 38.3402 66.1499C38.8702 66.1499 39.4002 66.1499 39.9023 66.2615C39.986 66.2894 39.9581 66.401 39.8744 66.401C39.3165 66.4568 38.7586 66.3731 38.2286 66.3452C37.7823 66.3173 37.3081 66.3452 36.8618 66.2615C36.806 66.5405 36.7502 66.8473 36.6665 67.1263C36.9734 67.0984 37.3918 67.2099 37.6149 67.2378C38.3123 67.2936 39.0655 67.2936 39.7629 67.461C39.8465 67.4889 39.8187 67.6284 39.735 67.6284C39.1213 67.6563 38.4797 67.5447 37.866 67.4889C37.5871 67.461 37.2802 67.4331 37.0013 67.4052C37.0013 67.4052 36.7781 67.3773 36.6107 67.3494C36.5549 67.4889 36.527 67.6284 36.4434 67.7678C36.527 67.9631 36.6386 68.1584 36.7781 68.3257C37.7544 68.4094 38.675 68.4373 39.5676 68.6047Z" fill="white"/>
<path d="M82.2185 81.7713C82.1906 81.7713 82.1906 81.7992 82.1627 81.7992C80.0985 81.8829 77.8948 81.9666 75.8584 81.6319C75.7747 81.6598 75.7189 81.6877 75.6074 81.6877C75.5516 81.6877 75.5237 81.6598 75.4958 81.6598C75.4958 81.855 75.5237 82.0503 75.5237 82.2456C77.1695 82.134 78.899 82.0224 80.5448 82.2456C80.6564 82.2735 80.6285 82.4408 80.5169 82.4408C78.8711 82.5245 77.1974 82.385 75.5237 82.385C75.5237 82.6082 75.5237 82.8314 75.5516 83.0545C77.2811 82.9429 79.1221 82.8592 80.8237 83.1661C80.9074 83.194 80.8795 83.3056 80.7958 83.3056C79.0664 83.3614 77.2811 83.2219 75.5516 83.1661C75.5516 83.3893 75.5516 83.6124 75.5516 83.8635C77.03 83.8635 78.4806 83.8635 79.959 83.975C80.0985 83.975 80.0985 84.1982 79.959 84.1982C78.4806 84.1703 77.03 84.0866 75.5516 84.0029C75.5516 84.2819 75.5516 84.5608 75.5516 84.8119C77.2532 84.7561 78.9827 84.784 80.6843 84.8956C80.7958 84.8956 80.7958 85.063 80.6843 85.063C78.9827 85.0908 77.2532 85.0351 75.5516 84.9514C75.5516 85.2024 75.5516 85.4814 75.5516 85.7324C76.7511 85.6766 77.9785 85.6209 79.1779 85.7324C79.2895 85.7324 79.2895 85.8719 79.1779 85.8998C77.9785 86.0114 76.7511 85.9277 75.5516 85.8998C75.5516 86.1788 75.5237 86.4577 75.5237 86.7646C77.1137 86.653 78.7595 86.5414 80.3495 86.6251C80.4611 86.6251 80.4611 86.7924 80.3495 86.7924C78.7316 86.8761 77.1137 86.8482 75.5237 86.904C75.5237 87.1551 75.4958 87.4061 75.4958 87.6851C77.0858 87.4898 78.8711 87.6014 80.4611 87.7688C80.5727 87.7967 80.6006 87.964 80.4611 87.964C78.8153 87.964 77.1137 87.9361 75.4958 87.7688C75.4958 87.964 75.4679 88.1872 75.4679 88.3825C77.4205 88.4104 79.3732 88.6335 81.3259 88.5219C81.4095 88.5219 81.4374 88.6614 81.3537 88.6614C79.4569 88.9683 77.3927 88.6893 75.4679 88.4661C75.4679 88.6056 75.4679 88.7451 75.44 88.8846C76.0816 89.0241 80.9353 89.0241 81.3816 89.0519C81.5211 89.0519 81.5211 89.2751 81.3816 89.2751C79.9869 89.303 78.5642 89.2751 77.1695 89.2472C76.8348 89.2472 75.8863 89.3309 75.44 89.0798C75.44 89.2193 75.4121 89.3588 75.4121 89.4983C77.6995 89.4704 80.0148 89.4425 82.3022 89.4146C82.1348 86.8482 82.2185 84.3098 82.2185 81.7713Z" fill="white"/>
<path d="M75.6638 57.8934C75.8311 57.8655 75.9985 58.0328 75.8869 58.2002C75.4127 59.0371 74.1296 59.2044 73.5438 58.3955C73.3764 58.1444 73.6832 57.9213 73.9064 58.0328C73.9622 58.0607 74.018 58.0886 74.0738 58.1165C73.8506 57.8376 73.7669 57.447 73.8227 57.1123C73.4601 57.3076 72.9859 57.196 72.7069 57.6423C72.3722 58.2002 72.7906 58.6744 73.209 59.0092C73.2927 59.065 73.2927 59.1486 73.2369 59.2044C73.5995 59.2044 73.9901 59.2044 74.3527 59.2602C74.4922 59.2602 74.4922 59.4555 74.3527 59.4555C73.9622 59.4555 73.5438 59.4276 73.1532 59.3997C73.0695 60.3202 72.9022 61.2966 72.679 62.2729C73.2369 62.3287 73.7948 62.3287 74.3527 62.3287C74.4643 62.3287 74.4643 62.496 74.3527 62.496C73.7669 62.5239 73.209 62.4682 72.6511 62.3845C72.5674 62.6913 72.4837 62.9982 72.4001 63.305C72.958 63.2213 73.5438 63.2213 74.1017 63.3329C74.2132 63.3608 74.1853 63.5282 74.0738 63.5282C73.488 63.4724 72.9301 63.4724 72.3443 63.5003C72.2606 63.7513 72.2048 64.0024 72.1211 64.2255C72.7069 64.2534 73.2927 64.2534 73.8785 64.3092C73.9901 64.3092 73.9901 64.5045 73.8785 64.5045C73.2648 64.5045 72.679 64.4487 72.0653 64.3929C71.9537 64.6998 71.8422 65.0066 71.7306 65.2855C72.4558 65.2298 73.1532 65.2298 73.8785 65.2298C73.9901 65.2298 73.9901 65.3692 73.8785 65.3971C73.1532 65.425 72.428 65.4808 71.7027 65.4529H71.6748C71.5632 65.704 71.4516 65.955 71.3401 66.2061C72.2606 66.234 73.1811 66.3177 74.1017 66.4013C74.1853 66.4013 74.2132 66.5687 74.1017 66.5408C73.1532 66.5129 72.2048 66.4292 71.2843 66.3177C71.2006 66.485 71.1169 66.6524 71.0332 66.8198C73.488 67.6566 75.859 67.7961 78.1743 66.4292C77.3933 64.1697 76.8075 61.8545 76.1659 59.5671C76.0822 59.2881 76.3054 59.1207 76.5006 59.0929C76.5006 59.0092 76.5285 58.9534 76.6122 58.8976C77.0027 58.7023 77.3933 58.3955 77.2538 57.9213C77.0864 57.3913 76.4448 57.3913 75.9985 57.3355C75.9706 57.3355 75.9148 57.3076 75.8869 57.3076C75.859 57.5307 75.7754 57.726 75.6638 57.8934ZM73.3206 60.1529C73.7111 60.1529 74.1017 60.0971 74.4643 60.1808C74.548 60.1808 74.548 60.3481 74.4643 60.3481C74.1017 60.4039 73.7111 60.376 73.3206 60.376C73.1811 60.3481 73.1811 60.1529 73.3206 60.1529ZM74.4922 61.4639C74.0459 61.4639 73.5995 61.4639 73.1532 61.436C73.0695 61.436 73.0695 61.2966 73.1532 61.2966C73.5995 61.2687 74.0459 61.2687 74.4922 61.2966C74.6038 61.2966 74.6038 61.4639 74.4922 61.4639Z" fill="white"/>
<path d="M59.1213 67.7123C58.0055 67.7123 56.9176 67.6565 55.8018 67.517C58.0892 69.1071 61.883 68.326 64.003 66.987C62.5524 63.5559 61.8551 59.7064 61.0182 56.0801C60.9903 55.9964 61.0182 55.9406 61.0461 55.8848C60.9066 55.7174 61.0182 55.4106 61.2693 55.3827C61.4645 55.3548 61.8272 55.048 61.9666 54.9364C62.2735 54.6295 62.3293 54.2948 62.1061 53.9043C61.7435 53.2906 61.1298 53.2069 60.5161 53.1232C60.544 53.179 60.5719 53.2627 60.5719 53.3464C60.5998 53.5974 60.5719 53.8206 60.4882 54.0158C60.4882 54.0158 60.5161 54.0158 60.5161 53.9879C60.6835 53.8764 60.9345 54.0995 60.795 54.2669C60.1256 55.1595 58.675 55.2432 57.8661 54.518C57.7266 54.3785 57.894 54.1832 58.0613 54.2669C58.2287 54.3506 58.3961 54.4064 58.5634 54.4343C58.4519 54.3227 58.3961 54.1832 58.3403 54.0158C58.2566 53.709 58.3403 53.43 58.5355 53.2069C58.4519 53.179 58.3961 53.1232 58.3403 53.0674C57.6708 53.0953 56.834 52.9837 56.4434 53.5695C56.1645 53.9879 56.3876 54.5459 56.6945 54.8527C56.8897 55.048 57.1966 55.1316 57.3082 55.3827C57.3361 55.4385 57.3361 55.4664 57.3082 55.4943C57.364 55.5501 57.3919 55.6059 57.3919 55.7174C57.3919 55.7732 57.364 55.829 57.364 55.8848C57.8382 55.8848 58.2845 55.8848 58.7587 55.9685C58.8703 55.9964 58.8703 56.1638 58.7587 56.1638C58.2845 56.1359 57.8103 56.108 57.3361 56.108C57.3082 56.4148 57.2524 56.6938 57.2245 57.0006C57.6708 56.9448 58.1171 56.9448 58.5913 56.9727C58.7029 56.9727 58.7029 57.168 58.5913 57.168C58.1171 57.168 57.6708 57.1959 57.1966 57.1959C57.1408 57.5027 57.1129 57.8096 57.0571 58.1443C57.5034 58.1164 57.9498 58.1164 58.424 58.1443C58.5634 58.1443 58.5634 58.3396 58.424 58.3675C57.9498 58.3954 57.5034 58.3675 57.0292 58.3675C56.9734 58.7301 56.9176 59.0927 56.8618 59.4833C57.4197 59.4275 58.0334 59.4275 58.5913 59.4833C58.675 59.4833 58.675 59.6227 58.5913 59.6227C58.0055 59.6785 57.4197 59.6785 56.834 59.6227C56.7782 59.9017 56.7503 60.1806 56.6945 60.4317C57.3361 60.4596 57.9777 60.4596 58.6471 60.4317C58.7308 60.4317 58.7308 60.5712 58.6471 60.5712C58.0055 60.627 57.3361 60.627 56.6945 60.5433C56.6387 60.8501 56.5829 61.157 56.555 61.4917C57.2803 61.4638 58.0055 61.4359 58.7308 61.4917C58.8424 61.4917 58.8424 61.6591 58.7308 61.6591C58.0055 61.687 57.2803 61.6591 56.555 61.6312C56.555 61.6591 56.555 61.687 56.5271 61.7149C56.4713 62.1054 56.4155 62.4959 56.3597 62.9144C57.1408 62.9701 57.894 62.9423 58.675 62.9144C58.7587 62.9144 58.7866 63.0538 58.7029 63.0817C57.9219 63.1933 57.1408 63.1933 56.3597 63.0817C56.3318 63.4165 56.2761 63.7791 56.2482 64.1138C56.8618 64.0581 57.4755 64.0023 58.0892 63.9744C58.2008 63.9744 58.1729 64.1138 58.0892 64.1138C57.4755 64.1696 56.8618 64.2254 56.2482 64.2254C56.2203 64.5044 56.1645 64.7554 56.1366 65.0344C56.8061 65.0065 57.4755 65.0065 58.145 65.0623C58.2566 65.0623 58.2566 65.2296 58.145 65.2296C57.4755 65.2575 56.7782 65.2575 56.1087 65.2296C56.0529 65.5644 55.9692 65.927 55.8855 66.2618C56.6945 66.2618 57.5034 66.3175 58.3124 66.4012C58.424 66.4012 58.424 66.5686 58.3124 66.5686C57.4755 66.5128 56.6666 66.457 55.8297 66.4291C55.746 66.7081 55.6624 66.987 55.5508 67.2381C55.5787 67.266 55.6066 67.266 55.6345 67.2939C56.834 67.3776 58.0055 67.4891 59.205 67.5449C59.205 67.5728 59.205 67.7123 59.1213 67.7123Z" fill="white"/>
<path d="M85.9014 85.1464C85.8456 83.1938 85.7619 81.2411 85.7062 79.2885C85.7062 79.1769 85.7341 79.0932 85.8177 79.0095C85.4272 77.6706 85.6225 76.0248 85.5667 74.6858C85.483 72.6495 85.2877 70.6131 85.204 68.5768C83.1398 67.9352 80.8524 67.0147 78.9556 65.871C79.0113 66.2057 79.0392 66.5126 78.9835 66.7636C78.9835 66.7915 78.9556 66.8194 78.9277 66.8473C78.8998 66.931 78.844 66.9868 78.7603 67.0426C76.3334 68.521 73.0139 68.8836 70.6149 67.182C70.5871 67.182 70.5871 67.1542 70.5871 67.1542C70.5034 67.1263 70.4476 67.0426 70.4197 66.9589V66.931C70.4197 66.9031 70.4197 66.9031 70.4197 66.8752C70.4197 66.7915 70.4476 66.7078 70.4476 66.6241C70.4197 66.6241 70.3639 66.6241 70.336 66.6241C68.1881 66.1778 66.0123 65.3689 64.0317 64.3925C64.227 65.2294 64.3665 66.0662 64.5059 66.9031C64.5059 66.931 64.5059 66.931 64.5059 66.9589C64.6454 67.0984 64.6733 67.3494 64.478 67.4889C62.8043 68.5768 60.768 69.2184 58.7875 69.0789C57.5322 68.9952 55.9422 68.7442 55.2169 67.6563C55.189 67.6563 55.1332 67.6284 55.1332 67.5726C55.1332 67.5447 55.1332 67.5447 55.1332 67.5168C55.0774 67.4331 55.0495 67.3494 55.0216 67.2657C54.9937 67.182 55.0216 67.0984 55.1053 67.0705C55.1053 67.0426 55.1053 66.9868 55.1053 66.9589C55.0774 66.9589 55.0774 66.9589 55.0495 66.9589C52.8737 66.5126 50.5584 65.8152 48.4663 65.0341C48.6337 65.6757 48.801 66.3452 48.9684 66.9868C48.9963 67.0984 48.9684 67.182 48.8847 67.2657C48.9126 67.3494 48.8847 67.4331 48.8289 67.4889C46.9321 69.9715 43.9194 70.641 40.9068 70.4179C40.0699 70.3621 35.8578 69.6368 36.0251 68.1305C35.8299 67.0705 36.1925 66.0105 36.4157 64.9504C36.4714 64.7273 36.4993 64.5041 36.5551 64.3089C36.0809 64.3089 35.5788 64.1136 35.1325 64.002C34.6862 63.8904 34.2956 63.751 33.9051 63.5557C33.9609 63.8067 34.0167 64.0857 34.0167 64.3925C34.5188 64.4204 35.0209 64.4483 35.5509 64.5041C35.6346 64.5041 35.6346 64.6157 35.5509 64.6157C35.0488 64.5878 34.5467 64.5599 34.0446 64.5041C34.0725 64.9225 34.0446 65.3689 33.9609 65.7873C34.4072 65.7315 34.8814 65.6757 35.3277 65.6478C35.3835 65.6478 35.4114 65.7594 35.3556 65.7594C34.8814 65.8152 34.4351 65.871 33.9609 65.8989C33.933 66.0105 33.9051 66.122 33.8772 66.2336C33.8772 66.2615 33.8772 66.2615 33.8493 66.2894C33.8772 66.4289 33.8772 66.5963 33.8772 66.7636C34.463 66.7636 35.0767 66.7636 35.6625 66.8194C35.7462 66.8194 35.7462 66.931 35.6625 66.931C35.0767 66.9031 34.4909 66.8752 33.9051 66.8752C33.933 67.182 33.933 67.461 33.933 67.7678C34.463 67.7678 35.0209 67.7399 35.5509 67.7678C35.6067 67.7678 35.6067 67.8794 35.5509 67.8794C35.0209 67.9073 34.463 67.8794 33.933 67.8794C33.933 68.27 33.933 68.6326 33.933 69.0231C34.4351 69.051 34.9372 69.051 35.4393 69.0789C35.4951 69.0789 35.4951 69.1626 35.4393 69.1626C34.9372 69.1905 34.4351 69.1626 33.933 69.1347C33.933 69.5252 33.9051 69.9158 33.9051 70.3063C34.4072 70.2784 34.9093 70.3063 35.3835 70.3063C35.4672 70.3063 35.4672 70.4179 35.3835 70.4179C34.8814 70.4179 34.3793 70.4458 33.9051 70.4179C33.9051 70.5852 33.9051 70.7526 33.9051 70.92C33.9051 71.1431 33.9051 71.3384 33.9051 71.5616C34.6025 71.5058 35.2999 71.45 35.9972 71.45C36.0809 71.45 36.0809 71.5616 35.9972 71.5616C35.2999 71.6174 34.6025 71.6452 33.9051 71.6731C33.9051 72.0358 33.9051 72.3705 33.9051 72.7332C34.3514 72.7611 34.7977 72.7611 35.272 72.7611C35.3556 72.7611 35.3556 72.8726 35.272 72.8726C34.8256 72.9284 34.3793 72.9005 33.9051 72.8447C33.9051 73.2353 33.9051 73.6537 33.9051 74.0442C34.6304 74.0442 35.3277 73.9605 36.0251 73.9047C36.0809 73.9047 36.0809 73.9884 36.0251 73.9884C35.3277 74.1558 34.6025 74.1837 33.8772 74.1558C33.8772 74.5463 33.8772 74.9369 33.8772 75.2995C34.0446 75.2716 34.3514 75.2716 34.4351 75.2716C34.742 75.2437 35.0209 75.2437 35.3277 75.2716C35.3835 75.2716 35.3835 75.3832 35.3277 75.3832C35.0488 75.3832 34.7698 75.3832 34.5188 75.3832C34.4909 75.3832 34.1004 75.3832 33.8772 75.3832C33.8772 75.6342 33.8772 75.9132 33.8772 76.1642C34.6862 76.1642 35.4672 76.1085 36.2762 76.0248C36.332 76.0248 36.3599 76.1363 36.3041 76.1363C35.4951 76.2479 34.6862 76.2758 33.8772 76.22C33.8772 76.5269 33.8772 76.8058 33.8772 77.1127C33.8772 77.1964 33.8772 77.28 33.8772 77.3916C34.3793 77.3916 34.8814 77.3637 35.3835 77.3916C35.4393 77.3916 35.4393 77.4753 35.3835 77.4753C34.8814 77.5032 34.3793 77.4753 33.8772 77.4753C33.8772 77.8101 33.8772 78.1727 33.8772 78.5074C34.6862 78.4516 35.4951 78.4237 36.2762 78.4795C36.332 78.4795 36.332 78.5632 36.2762 78.5632C35.4672 78.5632 34.6862 78.5632 33.8772 78.5911C33.8772 78.9537 33.8772 79.3164 33.8772 79.679C34.2956 79.6511 34.742 79.6232 35.1604 79.6232C35.2162 79.6232 35.2162 79.7069 35.1604 79.7069C34.742 79.7348 34.2956 79.7348 33.8772 79.7348C33.8772 79.9859 33.8772 80.2648 33.8772 80.5159C34.6025 80.5159 35.2999 80.4601 36.0251 80.4601C36.1088 80.4601 36.0809 80.5717 36.0251 80.5717C35.3277 80.6553 34.6025 80.6553 33.8772 80.6274C33.8772 80.9343 33.8772 81.2411 33.8772 81.5201C34.5746 81.4922 35.272 81.4643 35.9693 81.4643C36.0251 81.4643 36.0251 81.548 35.9693 81.548C35.272 81.6038 34.5746 81.6038 33.8772 81.6038C33.8772 81.9106 33.8772 82.1896 33.8772 82.4964C34.6025 82.4685 35.3277 82.4406 36.053 82.4406C36.1088 82.4406 36.1088 82.5243 36.053 82.5243C35.3277 82.5522 34.6025 82.5522 33.8772 82.5522C33.8772 82.8312 33.8772 83.138 33.8772 83.417C34.1004 83.417 34.3514 83.3891 34.4351 83.3891C34.6583 83.3891 34.8814 83.3891 35.1046 83.3891C35.5788 83.3891 36.0809 83.3891 36.5551 83.417C36.6109 83.417 36.6109 83.5285 36.5551 83.5285C35.8578 83.5564 35.1325 83.5006 34.4351 83.4727C34.3235 83.4727 34.0725 83.5006 33.8772 83.5006C33.8772 83.7796 33.8772 84.0864 33.8493 84.3654C34.5746 84.3096 35.3277 84.2538 36.053 84.3375C36.1088 84.3375 36.1088 84.4212 36.053 84.4212C35.3277 84.4491 34.5746 84.4212 33.8493 84.4491C33.8493 84.7001 33.8493 84.9233 33.8493 85.1743C34.6862 85.1185 35.5788 85.0907 36.3878 85.1464C36.4435 85.1464 36.4435 85.2301 36.3878 85.2301C35.5509 85.2859 34.6583 85.2859 33.8493 85.2022C33.8493 85.4254 33.8493 85.6486 33.8493 85.8717C34.5467 85.8159 35.272 85.8159 35.9693 85.8717C36.0251 85.8717 36.0251 85.9554 35.9693 85.9554C35.272 86.0112 34.5467 85.9833 33.8493 85.9554C33.8493 86.1786 33.8493 86.4017 33.8493 86.6249C34.6862 86.6528 35.523 86.597 36.3599 86.6528C36.4157 86.6528 36.4157 86.7365 36.3599 86.7365C35.523 86.8201 34.6583 86.7644 33.8493 86.7086C33.8493 86.9875 33.8493 87.2665 33.8214 87.5454C34.5467 87.5175 35.3277 87.5454 36.053 87.657C36.1088 87.657 36.1088 87.7686 36.0251 87.7686C35.2999 87.7965 34.5467 87.7407 33.8214 87.6291C33.8214 87.9359 33.7935 88.2149 33.7935 88.5217C34.2956 88.5217 34.7977 88.4938 35.2999 88.466C35.3556 88.466 35.3556 88.5496 35.2999 88.5496C34.8256 88.6612 34.2956 88.6612 33.7935 88.6054C33.7935 89.0796 33.7656 89.526 33.7656 90.0002C38.173 89.6933 42.6083 89.8328 47.0158 89.7491C51.3116 89.6933 55.6353 89.6375 59.9312 89.5818C65.008 89.526 70.0849 89.4423 75.1339 89.3865C75.0503 86.7644 75.0224 84.0027 75.2734 81.3806C75.2734 81.2411 75.385 81.1853 75.4687 81.1853C75.5245 81.1296 75.6082 81.1017 75.6918 81.1575C75.7197 81.1853 75.7476 81.1853 75.7755 81.1853C75.8034 81.1296 75.8592 81.1017 75.9429 81.1017C78.0908 80.9622 80.2666 81.1017 82.4145 81.0459C82.5261 81.0459 82.6098 81.0738 82.6377 81.1296C82.8051 81.0459 83.0561 81.1575 83.0561 81.3806C83.0561 84.0027 83.1956 86.6528 83.0561 89.2749C84.1161 89.247 85.1762 89.247 86.2362 89.2191C85.7341 88.0196 85.9293 86.4854 85.9014 85.1464ZM39.9304 88.2149C39.9304 88.2986 39.8746 88.4102 39.7631 88.4381C39.2888 88.4938 38.7867 88.466 38.3125 88.4938C37.9499 88.4938 37.5593 88.5775 37.2246 88.4102C37.1967 88.3823 37.1688 88.3265 37.1967 88.2986C37.1967 88.2986 37.2246 88.2986 37.2246 88.2707C37.2246 88.2428 37.1967 88.2428 37.1967 88.2149C37.0572 87.1828 37.0851 86.1786 37.0851 85.1464C37.0851 84.9512 37.2804 84.9233 37.4199 85.007C37.4199 85.007 37.4199 85.007 37.4478 85.007C37.5872 85.007 37.7267 85.007 37.8662 85.0349C38.3962 85.007 38.9541 84.9791 39.4562 85.0349C39.512 85.0349 39.5678 85.0349 39.6236 85.0349C39.6515 85.0349 39.6794 85.0349 39.7073 85.0628C39.8188 85.007 39.9862 85.0628 39.9862 85.2022C40.1257 86.1228 40.1257 87.0991 40.1536 88.0196C40.1257 88.1312 40.042 88.2149 39.9304 88.2149ZM39.9304 83.0822C39.9304 83.1659 39.8746 83.2775 39.7631 83.3054C39.2888 83.3612 38.7867 83.3333 38.3125 83.3612C37.9499 83.3612 37.5593 83.4448 37.2246 83.2775C37.1967 83.2496 37.1688 83.1938 37.1967 83.1659C37.1967 83.1659 37.2246 83.1659 37.2246 83.138C37.2246 83.1101 37.1967 83.1101 37.1967 83.0822C37.0572 82.0501 37.0851 81.0459 37.0851 80.0138C37.0851 79.8185 37.2804 79.7906 37.4199 79.8743C37.4199 79.8743 37.4199 79.8743 37.4478 79.8743C37.5872 79.8743 37.7267 79.8743 37.8662 79.9022C38.3962 79.8743 38.9541 79.8464 39.4562 79.9022C39.512 79.9022 39.5678 79.9022 39.6236 79.9022C39.6515 79.9022 39.6794 79.9022 39.7073 79.9301C39.8188 79.9022 39.9862 79.9301 39.9862 80.0695C40.1257 80.9901 40.1257 81.9664 40.1536 82.8869C40.1257 82.9985 40.042 83.0543 39.9304 83.0822ZM39.9304 77.7543C39.9304 77.8379 39.8746 77.9495 39.7631 77.9774C39.2888 78.0332 38.7867 78.0053 38.3125 78.0332C37.9499 78.0332 37.5593 78.1169 37.2246 77.9495C37.1967 77.9216 37.1688 77.8658 37.1967 77.8379C37.1967 77.8379 37.2246 77.8379 37.2246 77.81C37.2246 77.7822 37.1967 77.7822 37.1967 77.7543C37.0572 76.7221 37.0851 75.7179 37.0851 74.6858C37.0851 74.4905 37.2804 74.4626 37.4199 74.5463C37.4199 74.5463 37.4199 74.5463 37.4478 74.5463C37.5872 74.5463 37.7267 74.5463 37.8662 74.5742C38.3962 74.5463 38.9541 74.5184 39.4562 74.5742C39.512 74.5742 39.5678 74.5742 39.6236 74.5742C39.6515 74.5742 39.6794 74.5742 39.7073 74.6021C39.8188 74.5463 39.9862 74.6021 39.9862 74.7416C40.1257 75.6621 40.1257 76.6385 40.1536 77.559C40.1257 77.6427 40.042 77.7264 39.9304 77.7543ZM45.7605 88.2428C45.7605 88.3265 45.7047 88.4381 45.5931 88.466C45.1189 88.5217 44.6168 88.4938 44.1426 88.5217C43.7799 88.5217 43.3894 88.6054 43.0547 88.4381C43.0268 88.4102 42.9989 88.3544 43.0268 88.3265C43.0268 88.3265 43.0547 88.3265 43.0547 88.2986C43.0547 88.2707 43.0268 88.2707 43.0268 88.2428C42.8873 87.2107 42.9152 86.2065 42.9152 85.1743C42.9152 84.9791 43.1105 84.9512 43.2499 85.0349C43.2499 85.0349 43.2499 85.0349 43.2778 85.0349C43.4173 85.0349 43.5568 85.0349 43.6963 85.0628C44.2263 85.0349 44.7842 85.007 45.2863 85.0628C45.3421 85.0628 45.3978 85.0628 45.4536 85.0628C45.4815 85.0628 45.5094 85.0628 45.5373 85.0907C45.6489 85.0628 45.8163 85.0907 45.8163 85.2301C45.9558 86.1507 45.9557 87.127 45.9836 88.0475C45.9557 88.1591 45.8442 88.2149 45.7605 88.2428ZM45.7605 83.1101C45.7605 83.1938 45.7047 83.3054 45.5931 83.3333C45.1189 83.3891 44.6168 83.3612 44.1426 83.3891C43.7799 83.3891 43.3894 83.4727 43.0547 83.3054C43.0268 83.2775 42.9989 83.2217 43.0268 83.1938C43.0268 83.1938 43.0547 83.1938 43.0547 83.1659C43.0547 83.138 43.0268 83.138 43.0268 83.1101C42.8873 82.078 42.9152 81.0738 42.9152 80.0417C42.9152 79.8464 43.1105 79.8185 43.2499 79.9022C43.2499 79.9022 43.2499 79.9022 43.2778 79.9022C43.4173 79.9022 43.5568 79.9022 43.6963 79.9301C44.2263 79.9022 44.7842 79.8743 45.2863 79.9301C45.3421 79.9301 45.3978 79.9301 45.4536 79.9301C45.4815 79.9301 45.5094 79.9301 45.5373 79.958C45.6489 79.9022 45.8163 79.958 45.8163 80.0974C45.9558 81.018 45.9557 81.9943 45.9836 82.9148C45.9557 82.9985 45.8442 83.0822 45.7605 83.1101ZM45.7605 77.7543C45.7605 77.8379 45.7047 77.9495 45.5931 77.9774C45.1189 78.0332 44.6168 78.0053 44.1426 78.0332C43.7799 78.0332 43.3894 78.1169 43.0547 77.9495C43.0268 77.9216 42.9989 77.8658 43.0268 77.8379C43.0268 77.8379 43.0547 77.8379 43.0547 77.81C43.0547 77.7822 43.0268 77.7822 43.0268 77.7543C42.8873 76.7221 42.9152 75.7179 42.9152 74.6858C42.9152 74.4905 43.1105 74.4626 43.2499 74.5463C43.2499 74.5463 43.2499 74.5463 43.2778 74.5463C43.4173 74.5463 43.5568 74.5463 43.6963 74.5742C44.2263 74.5463 44.7842 74.5184 45.2863 74.5742C45.3421 74.5742 45.3978 74.5742 45.4536 74.5742C45.4815 74.5742 45.5094 74.5742 45.5373 74.6021C45.6489 74.5742 45.8163 74.6021 45.8163 74.7416C45.9558 75.6621 45.9557 76.6385 45.9836 77.559C45.9557 77.6706 45.8442 77.7543 45.7605 77.7543ZM52.0369 88.1312C52.0369 88.2149 51.9811 88.3265 51.8695 88.3544C51.3953 88.4102 50.8932 88.3823 50.419 88.4102C50.0563 88.4102 49.6658 88.4938 49.331 88.3265C49.3032 88.2986 49.2753 88.2428 49.3032 88.2149C49.3032 88.2149 49.331 88.2149 49.331 88.187C49.331 88.1591 49.3032 88.1591 49.3032 88.1312C49.1637 87.0991 49.1916 86.0949 49.1916 85.0628C49.1916 84.8675 49.3868 84.8396 49.5263 84.9233C49.5263 84.9233 49.5263 84.9233 49.5542 84.9233C49.6937 84.9233 49.8332 84.9233 49.9726 84.9512C50.5026 84.9233 51.0605 84.8954 51.5626 84.9512C51.6184 84.9512 51.6742 84.9512 51.73 84.9512C51.7579 84.9512 51.7858 84.9512 51.8137 84.9791C51.9253 84.9233 52.0927 84.9791 52.0927 85.1185C52.2321 86.0391 52.2321 87.0154 52.26 87.9359C52.2321 88.0475 52.1205 88.1312 52.0369 88.1312ZM52.0369 82.9985C52.0369 83.0822 51.9811 83.1938 51.8695 83.2217C51.3953 83.2775 50.8932 83.2496 50.419 83.2775C50.0563 83.2775 49.6658 83.3612 49.331 83.1938C49.3032 83.1659 49.2753 83.1101 49.3032 83.0822C49.3032 83.0822 49.331 83.0822 49.331 83.0543C49.331 83.0264 49.3032 83.0264 49.3032 82.9985C49.1637 81.9664 49.1916 80.9622 49.1916 79.9301C49.1916 79.7348 49.3868 79.7069 49.5263 79.7906C49.5263 79.7906 49.5263 79.7906 49.5542 79.7906C49.6937 79.7906 49.8332 79.7906 49.9726 79.8185C50.5026 79.7906 51.0605 79.7627 51.5626 79.8185C51.6184 79.8185 51.6742 79.8185 51.73 79.8185C51.7579 79.8185 51.7858 79.8185 51.8137 79.8464C51.9253 79.8185 52.0927 79.8464 52.0927 79.9859C52.2321 80.9064 52.2321 81.8827 52.26 82.8033C52.2321 82.9148 52.1205 82.9706 52.0369 82.9985ZM52.0369 77.6706C52.0369 77.7543 51.9811 77.8658 51.8695 77.8937C51.3953 77.9495 50.8932 77.9216 50.419 77.9495C50.0563 77.9495 49.6658 78.0332 49.331 77.8658C49.3032 77.8379 49.2753 77.7822 49.3032 77.7543C49.3032 77.7543 49.331 77.7543 49.331 77.7264C49.331 77.6985 49.3032 77.6985 49.3032 77.6706C49.1637 76.6385 49.1916 75.6342 49.1916 74.6021C49.1916 74.4069 49.3868 74.379 49.5263 74.4626C49.5263 74.4626 49.5263 74.4626 49.5542 74.4626C49.6937 74.4626 49.8332 74.4626 49.9726 74.4905C50.5026 74.4626 51.0605 74.4348 51.5626 74.4905C51.6184 74.4905 51.6742 74.4905 51.73 74.4905C51.7579 74.4905 51.7858 74.4905 51.8137 74.5184C51.9253 74.4627 52.0927 74.5184 52.0927 74.6579C52.2321 75.5785 52.2321 76.5548 52.26 77.4753C52.2321 77.5869 52.1205 77.6427 52.0369 77.6706ZM58.4248 88.2149C58.4248 88.2986 58.369 88.4102 58.2575 88.4381C57.7832 88.4938 57.2811 88.466 56.8069 88.4938C56.4443 88.4938 56.0537 88.5775 55.719 88.4102C55.6911 88.3823 55.6632 88.3265 55.6911 88.2986C55.6911 88.2986 55.719 88.2986 55.719 88.2707C55.719 88.2428 55.6911 88.2428 55.6911 88.2149C55.5516 87.1828 55.5795 86.1786 55.5795 85.1464C55.5795 84.9512 55.7748 84.9233 55.9143 85.007C55.9143 85.007 55.9143 85.007 55.9422 85.007C56.0816 85.007 56.2211 85.007 56.3606 85.0349C56.8906 85.007 57.4485 84.9791 57.9506 85.0349C58.0064 85.0349 58.0622 85.0349 58.118 85.0349C58.1459 85.0349 58.1738 85.0349 58.2017 85.0628C58.3132 85.007 58.4806 85.0628 58.4806 85.2022C58.6201 86.1228 58.6201 87.0991 58.648 88.0196C58.6201 88.1312 58.5364 88.2149 58.4248 88.2149ZM58.4248 83.0822C58.4248 83.1659 58.369 83.2775 58.2575 83.3054C57.7832 83.3612 57.2811 83.3333 56.8069 83.3612C56.4443 83.3612 56.0537 83.4448 55.719 83.2775C55.6911 83.2496 55.6632 83.1938 55.6911 83.1659C55.6911 83.1659 55.719 83.1659 55.719 83.138C55.719 83.1101 55.6911 83.1101 55.6911 83.0822C55.5516 82.0501 55.5795 81.0459 55.5795 80.0138C55.5795 79.8185 55.7748 79.7906 55.9143 79.8743C55.9143 79.8743 55.9143 79.8743 55.9422 79.8743C56.0816 79.8743 56.2211 79.8743 56.3606 79.9022C56.8906 79.8743 57.4485 79.8464 57.9506 79.9022C58.0064 79.9022 58.0622 79.9022 58.118 79.9022C58.1459 79.9022 58.1738 79.9022 58.2017 79.9301C58.3132 79.9022 58.4806 79.9301 58.4806 80.0695C58.6201 80.9901 58.6201 81.9664 58.648 82.8869C58.6201 82.9985 58.5364 83.0543 58.4248 83.0822ZM58.4248 77.7543C58.4248 77.8379 58.369 77.9495 58.2575 77.9774C57.7832 78.0332 57.2811 78.0053 56.8069 78.0332C56.4443 78.0332 56.0537 78.1169 55.719 77.9495C55.6911 77.9216 55.6632 77.8658 55.6911 77.8379C55.6911 77.8379 55.719 77.8379 55.719 77.81C55.719 77.7822 55.6911 77.7822 55.6911 77.7543C55.5516 76.7221 55.5795 75.7179 55.5795 74.6858C55.5795 74.4905 55.7748 74.4626 55.9143 74.5463C55.9143 74.5463 55.9143 74.5463 55.9422 74.5463C56.0816 74.5463 56.2211 74.5463 56.3606 74.5742C56.8906 74.5463 57.4485 74.5184 57.9506 74.5742C58.0064 74.5742 58.0622 74.5742 58.118 74.5742C58.1459 74.5742 58.1738 74.5742 58.2017 74.6021C58.3132 74.5463 58.4806 74.6021 58.4806 74.7416C58.6201 75.6621 58.6201 76.6385 58.648 77.559C58.6201 77.6427 58.5364 77.7264 58.4248 77.7543ZM64.9523 88.2707C64.9523 88.3544 64.8965 88.466 64.7849 88.4938C64.3107 88.5496 63.8086 88.5217 63.3343 88.5496C62.9717 88.5496 62.5812 88.6333 62.2464 88.466C62.2185 88.4381 62.1906 88.3823 62.2185 88.3544C62.2185 88.3544 62.2464 88.3544 62.2464 88.3265C62.2464 88.2986 62.2185 88.2986 62.2185 88.2707C62.0791 87.2386 62.107 86.2343 62.107 85.2022C62.107 85.007 62.3022 84.9791 62.4417 85.0628C62.4417 85.0628 62.4417 85.0628 62.4696 85.0628C62.6091 85.0628 62.7486 85.0628 62.888 85.0907C63.418 85.0628 63.9759 85.0349 64.478 85.0907C64.5338 85.0907 64.5896 85.0907 64.6454 85.0907C64.6733 85.0907 64.7012 85.0907 64.7291 85.1185C64.8407 85.0907 65.008 85.1185 65.008 85.258C65.1475 86.1786 65.1475 87.1549 65.1754 88.0754C65.1475 88.1591 65.0638 88.2428 64.9523 88.2707ZM64.9523 83.1101C64.9523 83.1938 64.8965 83.3054 64.7849 83.3333C64.3107 83.3891 63.8086 83.3612 63.3343 83.3891C62.9717 83.3891 62.5812 83.4727 62.2464 83.3054C62.2185 83.2775 62.1906 83.2217 62.2185 83.1938C62.2185 83.1938 62.2464 83.1938 62.2464 83.1659C62.2464 83.138 62.2185 83.138 62.2185 83.1101C62.0791 82.078 62.107 81.0738 62.107 80.0417C62.107 79.8464 62.3022 79.8185 62.4417 79.9022C62.4417 79.9022 62.4417 79.9022 62.4696 79.9022C62.6091 79.9022 62.7486 79.9022 62.888 79.9301C63.418 79.9022 63.9759 79.8743 64.478 79.9301C64.5338 79.9301 64.5896 79.9301 64.6454 79.9301C64.6733 79.9301 64.7012 79.9301 64.7291 79.958C64.8407 79.9301 65.008 79.958 65.008 80.0974C65.1475 81.018 65.1475 81.9943 65.1754 82.9148C65.1475 83.0264 65.0638 83.0822 64.9523 83.1101ZM64.9523 77.7822C64.9523 77.8658 64.8965 77.9774 64.7849 78.0053C64.3107 78.0611 63.8086 78.0332 63.3343 78.0611C62.9717 78.0611 62.5812 78.1448 62.2464 77.9774C62.2185 77.9495 62.1906 77.8937 62.2185 77.8658C62.2185 77.8658 62.2464 77.8658 62.2464 77.8379C62.2464 77.8101 62.2185 77.8101 62.2185 77.7822C62.0791 76.75 62.107 75.7458 62.107 74.7137C62.107 74.5184 62.3022 74.4905 62.4417 74.5742C62.4417 74.5742 62.4417 74.5742 62.4696 74.5742C62.6091 74.5742 62.7486 74.5742 62.888 74.6021C63.418 74.5742 63.9759 74.5463 64.478 74.6021C64.5338 74.6021 64.5896 74.6021 64.6454 74.6021C64.6733 74.6021 64.7012 74.6021 64.7291 74.63C64.8407 74.5742 65.008 74.63 65.008 74.7695C65.1475 75.69 65.1475 76.6664 65.1754 77.5869C65.1475 77.6985 65.0638 77.7543 64.9523 77.7822Z" fill="white"/>
</svg>
