<svg width="120" height="120" viewBox="0 0 120 120" fill="none" xmlns="http://www.w3.org/2000/svg">
<rect width="120" height="120" rx="60" fill="#2E8042"/>
<path d="M41.9954 49.1892C42.1628 49.245 42.2464 49.4403 42.107 49.5797C41.8559 49.8308 41.5212 49.9424 41.4375 50.3329C41.3538 50.6398 41.4375 51.0303 41.6049 51.3092C41.6885 51.3092 41.7722 51.3092 41.828 51.3092C42.1349 51.3092 42.3859 51.2256 42.637 51.1419C42.637 51.0303 42.637 50.9187 42.5812 50.8071C42.5254 50.6955 42.4417 50.584 42.3859 50.4724C42.3301 50.3329 42.4138 50.1934 42.5254 50.1655C42.5254 50.1098 42.5533 50.054 42.6091 50.0261C43.0554 49.8029 43.697 49.524 43.8086 48.9939C43.9201 48.4082 43.3344 48.185 43.0275 47.7945C42.9438 47.7108 42.9717 47.5713 43.0275 47.5155C43.0275 47.4039 43.1112 47.2924 43.2507 47.3481C43.9201 47.5992 44.757 47.4039 45.1754 46.7902C45.6217 46.0929 45.287 45.5071 44.9244 44.8655C44.8128 44.6702 45.0359 44.475 45.2312 44.5586C45.2312 44.5586 45.2312 44.5586 45.2591 44.5586C45.3707 44.475 45.5102 44.475 45.566 44.6144C46.626 46.9576 50.4197 47.1529 51.0334 44.3913C51.1171 44.0844 51.5634 44.1123 51.6192 44.4192C51.6471 44.4471 51.6471 44.475 51.675 44.5029C51.7865 45.0886 52.2329 45.6465 52.8744 45.6465C53.4881 45.6465 53.6834 45.1723 54.1576 44.8934C54.2134 44.8655 54.2692 44.8655 54.2971 44.8934C54.4087 44.8376 54.576 44.9492 54.5203 45.0886C54.325 45.7302 54.2971 46.4555 54.8271 46.9297C55.0782 47.1808 55.4408 47.3202 55.8034 47.3202C56.0824 47.3202 56.3334 47.1808 56.6124 47.2087C56.7798 47.2366 56.9471 47.4318 56.8355 47.5992C56.7798 47.655 56.7519 47.7108 56.6961 47.7666C56.3613 48.5197 56.2218 49.3845 56.6682 50.1376C57.1703 50.9745 57.9513 51.0861 58.8161 51.1977C59.0392 51.2256 59.0114 51.5045 58.844 51.5882C58.7045 51.8392 58.4813 52.2298 58.5929 52.5087C58.6208 52.5087 58.6487 52.5087 58.6766 52.5087C58.844 52.5087 58.9277 52.6761 58.9277 52.8156C59.0671 52.8714 59.1508 52.955 59.0671 53.1503C59.0671 53.1782 59.0392 53.2061 59.0114 53.2061C58.8998 53.4014 58.8719 53.6524 58.9277 53.8477C58.9835 54.0987 59.2066 54.2103 59.4298 54.3219C59.4856 54.3498 59.5135 54.3777 59.5414 54.4335C59.5971 54.4335 59.6529 54.4056 59.7087 54.3777C59.7087 54.3219 59.7366 54.2661 59.7645 54.2382C60.4898 53.5408 59.5135 52.955 59.9877 52.3692C60.3224 51.9508 60.9082 51.8113 61.2151 51.3092C61.7172 50.5003 61.6056 49.775 60.9919 49.0776C60.8803 48.9382 60.964 48.7708 61.1035 48.7708C61.1314 48.715 61.1872 48.6592 61.2708 48.6592C62.024 48.7987 62.833 48.6592 63.2793 47.9897C63.7814 47.2366 63.4746 46.595 63.1677 45.8697C63.084 45.6465 63.2793 45.3676 63.5024 45.4792C63.5582 45.4234 63.6977 45.3955 63.7535 45.5071C64.2277 46.2881 65.7341 46.3718 66.5151 46.316C67.5472 46.2323 68.3562 45.6744 68.663 44.6702C68.7467 44.3634 69.2767 44.4192 69.2488 44.7539C69.2488 44.8097 69.2209 44.8376 69.2209 44.8934C69.2209 44.8934 69.2209 44.8934 69.2209 44.8655C69.3046 44.726 69.4999 44.8097 69.472 44.9771C69.2767 46.3718 69.193 47.7666 70.1973 48.8824C71.1178 49.8866 72.2057 50.0261 73.461 50.1934C73.6562 50.2213 73.6562 50.4445 73.5726 50.5561C73.6004 50.584 73.6004 50.6398 73.5726 50.6677C73.3215 51.365 73.0425 52.0903 73.3215 52.8156C73.461 53.234 73.7957 53.5687 74.242 53.6524C74.5489 53.7082 74.7999 53.5966 75.0789 53.5408C75.2463 53.5129 75.4694 53.7082 75.3299 53.8756C75.2463 53.9872 75.1626 54.0708 75.051 54.1266C74.7162 54.4335 74.3257 54.824 74.2141 55.2424C74.0747 55.7167 74.3257 55.9677 74.5768 56.3303C74.6326 56.3861 74.6047 56.4698 74.5768 56.5256V56.5535C74.4094 56.8046 74.2699 57.0556 74.2978 57.3904C74.3257 57.753 74.5768 57.8646 74.8278 58.0598C74.8557 58.0877 74.8557 58.1156 74.8557 58.1156C75.4136 57.7809 75.6926 57.1114 75.4136 56.4698C75.3299 56.2746 75.4694 56.0793 75.6647 56.1351C76.2784 56.2467 77.1152 56.2746 77.45 55.633C77.8684 54.824 77.1431 54.4614 76.641 54.1545C76.3899 54.1545 76.3899 53.7919 76.6131 53.7361C77.5894 53.4293 78.4821 52.704 78.761 51.6998C79.0679 50.584 78.5379 49.6913 77.8963 48.8266C77.8126 48.715 77.8684 48.6034 77.9521 48.5197C77.9242 48.4082 77.98 48.2408 78.1194 48.2408C78.5937 48.185 79.04 48.5197 79.5421 48.4361C80.1558 48.3245 79.6258 47.6271 79.2631 47.5155C79.2073 47.4876 79.2073 47.4039 79.2631 47.4039C79.291 47.4039 79.3189 47.4039 79.3468 47.4039C79.3468 47.2645 79.4305 47.1529 79.5979 47.2087C80.9089 47.6829 83.6427 48.0734 83.6148 45.9255C83.5869 44.5586 82.4153 44.1681 81.5505 43.4707C81.3553 43.4986 81.2437 43.3592 81.2716 43.2197C81.2716 43.2197 81.2716 43.2197 81.2437 43.1918C81.16 43.1081 81.2158 42.9407 81.3553 42.9407C81.4111 42.9407 81.4947 42.9407 81.5505 42.9686C83.0569 42.3549 84.6469 41.6576 84.6748 39.7328C84.7027 38.3381 83.8379 36.8875 82.8895 35.9112C80.9926 33.9306 77.7289 33.4285 76.1947 36.1343C76.1389 36.2459 76.0273 36.2738 75.9436 36.2459C75.8042 36.4133 75.4973 36.3017 75.4694 36.0507C75.302 33.4285 73.712 31.0853 70.7552 31.4759C68.5236 31.7548 66.543 33.847 66.1246 35.9949C66.1246 36.0228 66.1525 36.0786 66.1525 36.1064C66.2083 36.3296 65.8735 36.497 65.7619 36.2738C64.8972 34.7675 63.6419 33.5959 61.773 33.9306C59.8203 34.2933 58.844 35.967 58.8161 37.8359C58.8161 37.8917 58.7882 37.9196 58.7603 37.9475C58.7603 38.0312 58.7603 38.087 58.7603 38.1707C58.7324 38.3381 58.4813 38.4775 58.3977 38.2823C58.1466 37.6965 58.0629 37.0549 57.2819 36.9712C56.6403 36.9154 56.2776 37.3338 55.7197 37.4454C55.5245 37.557 55.2176 37.3896 55.3013 37.1386C55.6918 36.1901 55.8034 35.1301 54.9387 34.377C54.2692 33.7912 52.7908 33.6238 52.205 34.4606C52.1771 34.5164 52.1771 34.5443 52.1492 34.5722C52.1492 34.5722 52.1492 34.5722 52.1492 34.6001C52.0655 34.7675 51.7307 34.7117 51.7586 34.4885C51.7586 34.4885 51.7586 34.4606 51.7308 34.4606C51.0892 32.8706 50.5592 31.5875 48.9412 30.7227C47.407 29.9138 45.566 29.858 43.8922 30.1927C40.5448 30.8622 37.7274 33.2054 38.648 36.8875C38.6759 36.9991 38.6201 37.0828 38.5364 37.1386C38.5364 37.2222 38.5085 37.278 38.4248 37.3338C36.6674 38.617 35.4958 40.3186 36.3327 42.5502C37.0859 44.5586 39.0385 45.1723 41.0191 45.2281C41.1306 45.2281 41.1864 45.3397 41.1864 45.4234C41.2143 45.4234 41.2422 45.4234 41.2701 45.4234C41.4375 45.4234 41.4933 45.6744 41.3538 45.7581C40.6006 46.2044 39.4012 46.7623 40.0148 47.8503C40.3775 48.5197 41.1864 48.9382 41.8838 49.1613C41.9675 49.1334 41.9954 49.1613 41.9954 49.1892ZM81.9411 36.1343C83.8658 37.3896 85.0932 40.8486 82.4153 41.9086C82.2479 41.9644 82.1363 41.7133 82.3037 41.6297C84.7585 40.4023 83.3358 37.6128 81.8574 36.2459C81.7737 36.1901 81.8574 36.0786 81.9411 36.1343ZM80.0163 35.8554C81.439 36.1622 82.5826 37.4175 82.8616 38.8123C82.9174 39.0075 82.6105 39.1191 82.5547 38.896C82.1642 37.5291 81.2437 36.5528 79.9605 35.967C79.9047 35.9112 79.9326 35.8275 80.0163 35.8554ZM76.7247 51.9508C77.3663 51.5045 78.0079 50.3887 77.2547 49.7471C77.1431 49.6634 77.2826 49.524 77.3942 49.5797C77.8405 49.775 77.9521 50.305 77.8684 50.7792C77.7568 51.3929 77.3663 51.895 76.8084 52.1461C76.7247 52.174 76.641 52.0066 76.7247 51.9508ZM76.2784 52.9271C77.45 52.7319 78.1752 51.8671 78.1194 50.6955C78.1194 50.5561 78.3426 50.5282 78.3705 50.6677C78.6494 51.9508 77.6173 53.2061 76.3063 53.0666C76.2226 53.0387 76.1947 52.9271 76.2784 52.9271ZM70.8667 47.2645C71.1457 47.6271 71.4525 47.9339 71.8431 48.1571C72.2057 48.3803 72.5962 48.4082 72.9868 48.5197C73.1541 48.5755 73.0983 48.7708 72.9589 48.7987C72.0662 48.9103 71.0899 48.1292 70.7273 47.376C70.6715 47.2366 70.7831 47.1529 70.8667 47.2645ZM70.1136 45.4234C70.1694 45.3397 70.2809 45.4234 70.253 45.5071C69.9462 46.1487 70.1136 47.0413 70.5041 47.6271C70.8667 48.1571 71.341 48.3803 71.8989 48.6313C72.0104 48.6871 71.9546 48.9103 71.8152 48.9103C70.3646 48.715 69.1651 46.7066 70.1136 45.4234ZM57.6724 48.7708C57.7282 49.1055 57.9234 49.4124 58.2024 49.6076C58.4813 49.8029 58.7603 49.775 59.0671 49.8587C59.1787 49.8866 59.2066 50.0261 59.095 50.0819C58.7603 50.2492 58.2861 50.054 58.0071 49.8308C57.6724 49.5797 57.4492 49.2171 57.4213 48.7708C57.4492 48.6592 57.6724 48.6313 57.6724 48.7708ZM57.254 47.906C57.3377 47.8224 57.4771 47.8781 57.4213 47.9897C57.1982 48.4361 57.0587 48.9382 57.254 49.4124C57.4213 49.8308 57.7561 49.9982 58.1466 50.1655C58.2861 50.2213 58.2582 50.3887 58.1187 50.4166C57.5887 50.4724 57.1145 50.0261 56.9471 49.5797C56.724 48.9939 56.8913 48.3803 57.254 47.906ZM53.7392 34.4606C54.2692 34.5443 54.855 35.0464 54.7992 35.6043C54.7992 35.7438 54.6039 35.7996 54.5481 35.6601C54.325 35.2417 54.1855 34.8791 53.6555 34.7675C53.4045 34.7117 53.1534 34.7675 52.9302 34.8791C52.8187 34.9349 52.7071 35.0464 52.5676 35.0743C52.5397 35.0743 52.4839 35.0464 52.4839 35.0185C52.5955 34.5443 53.3487 34.377 53.7392 34.4606ZM48.6902 45.6187C47.6302 46.065 46.3191 45.0886 45.9286 44.1402C45.8728 44.0286 46.0681 43.9728 46.1239 44.0565C46.3749 44.5029 46.7375 44.8655 47.1839 45.1165C47.6581 45.3676 48.1323 45.3397 48.6344 45.3676C48.8297 45.3955 48.8297 45.5629 48.6902 45.6187ZM47.2675 44.2239C47.5465 44.475 47.9091 44.6702 48.2997 44.726C48.6623 44.7818 48.997 44.6702 49.3597 44.6981C49.4992 44.6981 49.527 44.8655 49.4155 44.9492C48.746 45.4513 47.6023 44.8934 47.1281 44.3634C47.0165 44.2518 47.156 44.1123 47.2675 44.2239ZM39.5685 36.0228C38.9269 33.6238 41.0749 31.5596 43.2228 30.9738C43.3622 30.9459 43.4738 31.1411 43.3343 31.2248C41.2701 32.1175 39.4848 33.4843 39.7638 35.9949C39.7638 36.1064 39.5964 36.1064 39.5685 36.0228ZM40.9912 34.4606C40.9354 34.5443 40.8517 34.4606 40.8796 34.4049C41.828 32.3406 44.3107 30.918 46.5702 31.3364C46.7375 31.3643 46.6818 31.6432 46.5423 31.6432C44.1991 31.6153 42.3301 32.4522 40.9912 34.4606Z" fill="white"/>
<path d="M39.5676 68.6047C39.6792 68.6326 39.6234 68.7721 39.5397 68.7721C38.7586 68.8836 37.8939 68.7442 37.1128 68.521C38.4239 69.6926 41.1018 69.7763 42.5524 69.6926C44.784 69.581 46.7924 68.7721 48.2151 67.0147C48.243 66.9868 48.243 66.9868 48.2708 66.9868C46.625 62.3562 45.314 57.3909 44.2819 52.593C44.2819 52.5372 44.2819 52.4814 44.2819 52.4535C44.1424 52.3698 44.1703 52.1466 44.3655 52.1187C45.0071 52.0629 45.5929 51.3656 45.3977 50.724C45.2024 50.0266 44.4771 49.8592 43.8634 49.9708C43.8076 49.9708 43.7519 49.9708 43.6961 49.9429C43.4171 50.1103 43.1103 50.2498 42.8034 50.3335C42.9429 50.5287 42.9987 50.8077 42.9708 51.0308C43.194 50.9471 43.4171 50.8635 43.6682 50.8077C43.7519 50.7798 43.8355 50.8914 43.7797 50.9471C42.9708 52.314 40.5439 51.9514 39.5676 51.0308C39.4002 50.8635 39.6234 50.6124 39.7908 50.724C40.1813 50.9471 40.5718 51.1145 40.9902 51.2261C40.795 50.9471 40.7113 50.6124 40.8229 50.2219C40.8508 50.0824 40.9345 49.915 41.0181 49.7756C40.2371 49.6082 38.8702 49.4966 38.5634 50.3056C38.2565 51.1145 38.8702 51.9514 39.4281 52.5093C39.4839 52.5651 39.456 52.6766 39.4002 52.7324C39.4839 52.8161 39.5118 52.9277 39.4839 53.0393C39.4839 53.0951 39.456 53.1509 39.456 53.2066C39.8744 53.1787 40.2929 53.2066 40.7113 53.2624C40.8508 53.2903 40.8508 53.4856 40.7113 53.4856C40.2929 53.4577 39.8466 53.4298 39.4281 53.4298C39.3444 53.7924 39.2886 54.1551 39.205 54.5177C39.6513 54.5177 40.0976 54.5177 40.5439 54.5735C40.6555 54.5735 40.6555 54.7409 40.5439 54.7409C40.0976 54.7409 39.6234 54.713 39.1771 54.6851C39.1213 55.0198 39.0376 55.3546 38.9818 55.6893C39.5118 55.7172 40.0139 55.7172 40.5439 55.6893C40.6555 55.6893 40.6834 55.8567 40.5718 55.8846C40.0418 55.9683 39.4839 55.9404 38.9539 55.8846C38.8702 56.2751 38.8144 56.6656 38.7308 57.0283C39.3723 57.0562 40.0139 57.0283 40.6555 56.9725C40.7671 56.9725 40.795 57.1398 40.6834 57.1677C40.0139 57.2514 39.3444 57.2793 38.675 57.2235C38.5913 57.6977 38.4797 58.1441 38.396 58.6183C39.0655 58.6462 39.7629 58.6183 40.4323 58.6183C40.5439 58.6183 40.5439 58.7856 40.4323 58.7856C39.735 58.8414 39.0655 58.8135 38.3681 58.7578C38.2844 59.1483 38.2007 59.5388 38.1171 59.9572C38.8423 59.9293 39.5676 59.9293 40.2929 59.9851C40.4045 59.9851 40.4045 60.1804 40.2929 60.1804C39.5397 60.1525 38.8144 60.1246 38.0613 60.1246C38.0055 60.4315 37.9497 60.7104 37.8939 61.0173C37.8939 61.073 37.866 61.1567 37.866 61.2125C38.7308 61.1288 39.6234 61.1567 40.4881 61.2962C40.5997 61.3241 40.5718 61.4915 40.4602 61.4915C39.5676 61.4078 38.7029 61.3799 37.8102 61.4078C37.7265 61.7983 37.6428 62.1888 37.5592 62.6073C38.4518 62.5794 39.3723 62.5515 40.265 62.6073C40.3766 62.6073 40.3766 62.8025 40.265 62.8025C39.3444 62.8583 38.4239 62.8304 37.5034 62.8025C37.4476 63.1373 37.3639 63.4441 37.3081 63.7789C38.1729 63.7789 39.0376 63.8068 39.9302 63.8625C40.0418 63.8625 40.0418 64.0578 39.9302 64.0578C39.0376 64.0578 38.1729 64.002 37.2802 63.9462C37.2244 64.281 37.1407 64.6436 37.0849 64.9783C38.1171 64.9504 39.1771 64.9504 40.2092 65.0062C40.3208 65.0062 40.3208 65.1736 40.2092 65.2015C39.1492 65.2294 38.1171 65.2015 37.057 65.1178C37.057 65.1457 37.0292 65.2015 37.0292 65.2294C36.9734 65.5641 36.9176 65.8989 36.8618 66.2057C37.336 66.122 37.866 66.1499 38.3402 66.1499C38.8702 66.1499 39.4002 66.1499 39.9023 66.2615C39.986 66.2894 39.9581 66.401 39.8744 66.401C39.3165 66.4568 38.7586 66.3731 38.2286 66.3452C37.7823 66.3173 37.3081 66.3452 36.8618 66.2615C36.806 66.5405 36.7502 66.8473 36.6665 67.1263C36.9734 67.0984 37.3918 67.2099 37.6149 67.2378C38.3123 67.2936 39.0655 67.2936 39.7629 67.461C39.8465 67.4889 39.8187 67.6284 39.735 67.6284C39.1213 67.6563 38.4797 67.5447 37.866 67.4889C37.5871 67.461 37.2802 67.4331 37.0013 67.4052C37.0013 67.4052 36.7781 67.3773 36.6107 67.3494C36.5549 67.4889 36.527 67.6284 36.4434 67.7678C36.527 67.9631 36.6386 68.1584 36.7781 68.3257C37.7544 68.4094 38.675 68.4373 39.5676 68.6047Z" fill="white"/>
<path d="M82.2185 81.7714C82.1906 81.7714 82.1906 81.7993 82.1627 81.7993C80.0985 81.883 77.8948 81.9667 75.8584 81.632C75.7747 81.6599 75.7189 81.6877 75.6074 81.6877C75.5516 81.6877 75.5237 81.6599 75.4958 81.6599C75.4958 81.8551 75.5237 82.0504 75.5237 82.2456C77.1695 82.1341 78.899 82.0225 80.5448 82.2456C80.6564 82.2735 80.6285 82.4409 80.5169 82.4409C78.8711 82.5246 77.1974 82.3851 75.5237 82.3851C75.5237 82.6083 75.5237 82.8314 75.5516 83.0546C77.2811 82.943 79.1221 82.8593 80.8237 83.1662C80.9074 83.1941 80.8795 83.3057 80.7958 83.3057C79.0664 83.3615 77.2811 83.222 75.5516 83.1662C75.5516 83.3893 75.5516 83.6125 75.5516 83.8636C77.03 83.8636 78.4806 83.8636 79.959 83.9751C80.0985 83.9751 80.0985 84.1983 79.959 84.1983C78.4806 84.1704 77.03 84.0867 75.5516 84.003C75.5516 84.282 75.5516 84.5609 75.5516 84.812C77.2532 84.7562 78.9827 84.7841 80.6843 84.8957C80.7958 84.8957 80.7958 85.063 80.6843 85.063C78.9827 85.0909 77.2532 85.0352 75.5516 84.9515C75.5516 85.2025 75.5516 85.4815 75.5516 85.7325C76.7511 85.6767 77.9785 85.6209 79.1779 85.7325C79.2895 85.7325 79.2895 85.872 79.1779 85.8999C77.9785 86.0115 76.7511 85.9278 75.5516 85.8999C75.5516 86.1788 75.5237 86.4578 75.5237 86.7646C77.1137 86.6531 78.7595 86.5415 80.3495 86.6252C80.4611 86.6252 80.4611 86.7925 80.3495 86.7925C78.7316 86.8762 77.1137 86.8483 75.5237 86.9041C75.5237 87.1552 75.4958 87.4062 75.4958 87.6852C77.0858 87.4899 78.8711 87.6015 80.4611 87.7689C80.5727 87.7968 80.6006 87.9641 80.4611 87.9641C78.8153 87.9641 77.1137 87.9362 75.4958 87.7689C75.4958 87.9641 75.4679 88.1873 75.4679 88.3826C77.4205 88.4104 79.3732 88.6336 81.3259 88.522C81.4095 88.522 81.4374 88.6615 81.3537 88.6615C79.4569 88.9683 77.3927 88.6894 75.4679 88.4662C75.4679 88.6057 75.4679 88.7452 75.44 88.8847C76.0816 89.0241 80.9353 89.0241 81.3816 89.052C81.5211 89.052 81.5211 89.2752 81.3816 89.2752C79.9869 89.3031 78.5642 89.2752 77.1695 89.2473C76.8348 89.2473 75.8863 89.331 75.44 89.0799C75.44 89.2194 75.4121 89.3589 75.4121 89.4984C77.6995 89.4705 80.0148 89.4426 82.3022 89.4147C82.1348 86.8483 82.2185 84.3099 82.2185 81.7714Z" fill="white"/>
<path d="M75.6638 57.8934C75.8311 57.8655 75.9985 58.0328 75.8869 58.2002C75.4127 59.0371 74.1296 59.2044 73.5438 58.3955C73.3764 58.1444 73.6832 57.9213 73.9064 58.0328C73.9622 58.0607 74.018 58.0886 74.0738 58.1165C73.8506 57.8376 73.7669 57.447 73.8227 57.1123C73.4601 57.3076 72.9859 57.196 72.7069 57.6423C72.3722 58.2002 72.7906 58.6744 73.209 59.0092C73.2927 59.065 73.2927 59.1486 73.2369 59.2044C73.5995 59.2044 73.9901 59.2044 74.3527 59.2602C74.4922 59.2602 74.4922 59.4555 74.3527 59.4555C73.9622 59.4555 73.5438 59.4276 73.1532 59.3997C73.0695 60.3202 72.9022 61.2966 72.679 62.2729C73.2369 62.3287 73.7948 62.3287 74.3527 62.3287C74.4643 62.3287 74.4643 62.496 74.3527 62.496C73.7669 62.5239 73.209 62.4682 72.6511 62.3845C72.5674 62.6913 72.4837 62.9982 72.4001 63.305C72.958 63.2213 73.5438 63.2213 74.1017 63.3329C74.2132 63.3608 74.1853 63.5282 74.0738 63.5282C73.488 63.4724 72.9301 63.4724 72.3443 63.5003C72.2606 63.7513 72.2048 64.0024 72.1211 64.2255C72.7069 64.2534 73.2927 64.2534 73.8785 64.3092C73.9901 64.3092 73.9901 64.5045 73.8785 64.5045C73.2648 64.5045 72.679 64.4487 72.0653 64.3929C71.9537 64.6998 71.8422 65.0066 71.7306 65.2855C72.4558 65.2298 73.1532 65.2298 73.8785 65.2298C73.9901 65.2298 73.9901 65.3692 73.8785 65.3971C73.1532 65.425 72.428 65.4808 71.7027 65.4529H71.6748C71.5632 65.704 71.4516 65.955 71.3401 66.2061C72.2606 66.234 73.1811 66.3177 74.1017 66.4013C74.1853 66.4013 74.2132 66.5687 74.1017 66.5408C73.1532 66.5129 72.2048 66.4292 71.2843 66.3177C71.2006 66.485 71.1169 66.6524 71.0332 66.8198C73.488 67.6566 75.859 67.7961 78.1743 66.4292C77.3933 64.1697 76.8075 61.8545 76.1659 59.5671C76.0822 59.2881 76.3054 59.1207 76.5006 59.0929C76.5006 59.0092 76.5285 58.9534 76.6122 58.8976C77.0027 58.7023 77.3933 58.3955 77.2538 57.9213C77.0864 57.3913 76.4448 57.3913 75.9985 57.3355C75.9706 57.3355 75.9148 57.3076 75.8869 57.3076C75.859 57.5307 75.7754 57.726 75.6638 57.8934ZM73.3206 60.1529C73.7111 60.1529 74.1017 60.0971 74.4643 60.1808C74.548 60.1808 74.548 60.3481 74.4643 60.3481C74.1017 60.4039 73.7111 60.376 73.3206 60.376C73.1811 60.3481 73.1811 60.1529 73.3206 60.1529ZM74.4922 61.4639C74.0459 61.4639 73.5995 61.4639 73.1532 61.436C73.0695 61.436 73.0695 61.2966 73.1532 61.2966C73.5995 61.2687 74.0459 61.2687 74.4922 61.2966C74.6038 61.2966 74.6038 61.4639 74.4922 61.4639Z" fill="white"/>
<path d="M59.1213 67.7124C58.0055 67.7124 56.9176 67.6566 55.8018 67.5171C58.0892 69.1071 61.883 68.3261 64.003 66.9871C62.5524 63.556 61.8551 59.7065 61.0182 56.0802C60.9903 55.9965 61.0182 55.9407 61.0461 55.8849C60.9066 55.7175 61.0182 55.4107 61.2693 55.3828C61.4645 55.3549 61.8272 55.0481 61.9666 54.9365C62.2735 54.6296 62.3293 54.2949 62.1061 53.9044C61.7435 53.2907 61.1298 53.207 60.5161 53.1233C60.544 53.1791 60.5719 53.2628 60.5719 53.3465C60.5998 53.5975 60.5719 53.8207 60.4882 54.0159C60.4882 54.0159 60.5161 54.0159 60.5161 53.988C60.6835 53.8765 60.9345 54.0996 60.795 54.267C60.1256 55.1596 58.675 55.2433 57.8661 54.518C57.7266 54.3786 57.894 54.1833 58.0613 54.267C58.2287 54.3507 58.3961 54.4065 58.5634 54.4344C58.4519 54.3228 58.3961 54.1833 58.3403 54.0159C58.2566 53.7091 58.3403 53.4301 58.5355 53.207C58.4519 53.1791 58.3961 53.1233 58.3403 53.0675C57.6708 53.0954 56.834 52.9838 56.4434 53.5696C56.1645 53.988 56.3876 54.5459 56.6945 54.8528C56.8897 55.0481 57.1966 55.1317 57.3082 55.3828C57.3361 55.4386 57.3361 55.4665 57.3082 55.4944C57.364 55.5502 57.3919 55.606 57.3919 55.7175C57.3919 55.7733 57.364 55.8291 57.364 55.8849C57.8382 55.8849 58.2845 55.8849 58.7587 55.9686C58.8703 55.9965 58.8703 56.1639 58.7587 56.1639C58.2845 56.136 57.8103 56.1081 57.3361 56.1081C57.3082 56.4149 57.2524 56.6939 57.2245 57.0007C57.6708 56.9449 58.1171 56.9449 58.5913 56.9728C58.7029 56.9728 58.7029 57.1681 58.5913 57.1681C58.1171 57.1681 57.6708 57.196 57.1966 57.196C57.1408 57.5028 57.1129 57.8097 57.0571 58.1444C57.5034 58.1165 57.9498 58.1165 58.424 58.1444C58.5634 58.1444 58.5634 58.3397 58.424 58.3676C57.9498 58.3955 57.5034 58.3676 57.0292 58.3676C56.9734 58.7302 56.9176 59.0928 56.8618 59.4834C57.4197 59.4276 58.0334 59.4276 58.5913 59.4834C58.675 59.4834 58.675 59.6228 58.5913 59.6228C58.0055 59.6786 57.4197 59.6786 56.834 59.6228C56.7782 59.9018 56.7503 60.1807 56.6945 60.4318C57.3361 60.4597 57.9777 60.4597 58.6471 60.4318C58.7308 60.4318 58.7308 60.5713 58.6471 60.5713C58.0055 60.6271 57.3361 60.6271 56.6945 60.5434C56.6387 60.8502 56.5829 61.1571 56.555 61.4918C57.2803 61.4639 58.0055 61.436 58.7308 61.4918C58.8424 61.4918 58.8424 61.6592 58.7308 61.6592C58.0055 61.6871 57.2803 61.6592 56.555 61.6313C56.555 61.6592 56.555 61.6871 56.5271 61.715C56.4713 62.1055 56.4155 62.496 56.3597 62.9144C57.1408 62.9702 57.894 62.9423 58.675 62.9144C58.7587 62.9144 58.7866 63.0539 58.7029 63.0818C57.9219 63.1934 57.1408 63.1934 56.3597 63.0818C56.3318 63.4166 56.2761 63.7792 56.2482 64.1139C56.8618 64.0581 57.4755 64.0024 58.0892 63.9745C58.2008 63.9745 58.1729 64.1139 58.0892 64.1139C57.4755 64.1697 56.8618 64.2255 56.2482 64.2255C56.2203 64.5045 56.1645 64.7555 56.1366 65.0345C56.8061 65.0066 57.4755 65.0066 58.145 65.0624C58.2566 65.0624 58.2566 65.2297 58.145 65.2297C57.4755 65.2576 56.7782 65.2576 56.1087 65.2297C56.0529 65.5645 55.9692 65.9271 55.8855 66.2619C56.6945 66.2619 57.5034 66.3176 58.3124 66.4013C58.424 66.4013 58.424 66.5687 58.3124 66.5687C57.4755 66.5129 56.6666 66.4571 55.8297 66.4292C55.746 66.7082 55.6624 66.9871 55.5508 67.2382C55.5787 67.2661 55.6066 67.2661 55.6345 67.294C56.834 67.3777 58.0055 67.4892 59.205 67.545C59.205 67.5729 59.205 67.7124 59.1213 67.7124Z" fill="white"/>
<path d="M85.9014 85.1465C85.8456 83.1939 85.7619 81.2412 85.7062 79.2886C85.7062 79.177 85.7341 79.0933 85.8177 79.0096C85.4272 77.6707 85.6225 76.0249 85.5667 74.6859C85.483 72.6496 85.2877 70.6132 85.204 68.5769C83.1398 67.9353 80.8524 67.0148 78.9556 65.8711C79.0113 66.2058 79.0392 66.5127 78.9835 66.7637C78.9835 66.7916 78.9556 66.8195 78.9277 66.8474C78.8998 66.9311 78.844 66.9869 78.7603 67.0427C76.3334 68.5211 73.0139 68.8837 70.6149 67.1821C70.5871 67.1821 70.5871 67.1542 70.5871 67.1542C70.5034 67.1263 70.4476 67.0427 70.4197 66.959V66.9311C70.4197 66.9032 70.4197 66.9032 70.4197 66.8753C70.4197 66.7916 70.4476 66.7079 70.4476 66.6242C70.4197 66.6242 70.3639 66.6242 70.336 66.6242C68.1881 66.1779 66.0123 65.369 64.0317 64.3926C64.227 65.2295 64.3665 66.0663 64.5059 66.9032C64.5059 66.9311 64.5059 66.9311 64.5059 66.959C64.6454 67.0985 64.6733 67.3495 64.478 67.489C62.8043 68.5769 60.768 69.2185 58.7875 69.079C57.5322 68.9953 55.9422 68.7443 55.2169 67.6564C55.189 67.6564 55.1332 67.6285 55.1332 67.5727C55.1332 67.5448 55.1332 67.5448 55.1332 67.5169C55.0774 67.4332 55.0495 67.3495 55.0216 67.2658C54.9937 67.1821 55.0216 67.0985 55.1053 67.0706C55.1053 67.0427 55.1053 66.9869 55.1053 66.959C55.0774 66.959 55.0774 66.959 55.0495 66.959C52.8737 66.5127 50.5584 65.8153 48.4663 65.0342C48.6337 65.6758 48.801 66.3453 48.9684 66.9869C48.9963 67.0985 48.9684 67.1821 48.8847 67.2658C48.9126 67.3495 48.8847 67.4332 48.8289 67.489C46.9321 69.9716 43.9194 70.6411 40.9068 70.418C40.0699 70.3622 35.8578 69.6369 36.0251 68.1306C35.8299 67.0706 36.1925 66.0105 36.4157 64.9505C36.4714 64.7274 36.4993 64.5042 36.5551 64.309C36.0809 64.309 35.5788 64.1137 35.1325 64.0021C34.6862 63.8905 34.2956 63.7511 33.9051 63.5558C33.9609 63.8068 34.0167 64.0858 34.0167 64.3926C34.5188 64.4205 35.0209 64.4484 35.5509 64.5042C35.6346 64.5042 35.6346 64.6158 35.5509 64.6158C35.0488 64.5879 34.5467 64.56 34.0446 64.5042C34.0725 64.9226 34.0446 65.369 33.9609 65.7874C34.4072 65.7316 34.8814 65.6758 35.3277 65.6479C35.3835 65.6479 35.4114 65.7595 35.3556 65.7595C34.8814 65.8153 34.4351 65.8711 33.9609 65.899C33.933 66.0105 33.9051 66.1221 33.8772 66.2337C33.8772 66.2616 33.8772 66.2616 33.8493 66.2895C33.8772 66.429 33.8772 66.5963 33.8772 66.7637C34.463 66.7637 35.0767 66.7637 35.6625 66.8195C35.7462 66.8195 35.7462 66.9311 35.6625 66.9311C35.0767 66.9032 34.4909 66.8753 33.9051 66.8753C33.933 67.1821 33.933 67.4611 33.933 67.7679C34.463 67.7679 35.0209 67.74 35.5509 67.7679C35.6067 67.7679 35.6067 67.8795 35.5509 67.8795C35.0209 67.9074 34.463 67.8795 33.933 67.8795C33.933 68.27 33.933 68.6327 33.933 69.0232C34.4351 69.0511 34.9372 69.0511 35.4393 69.079C35.4951 69.079 35.4951 69.1627 35.4393 69.1627C34.9372 69.1906 34.4351 69.1627 33.933 69.1348C33.933 69.5253 33.9051 69.9159 33.9051 70.3064C34.4072 70.2785 34.9093 70.3064 35.3835 70.3064C35.4672 70.3064 35.4672 70.418 35.3835 70.418C34.8814 70.418 34.3793 70.4459 33.9051 70.418C33.9051 70.5853 33.9051 70.7527 33.9051 70.9201C33.9051 71.1432 33.9051 71.3385 33.9051 71.5617C34.6025 71.5059 35.2999 71.4501 35.9972 71.4501C36.0809 71.4501 36.0809 71.5617 35.9972 71.5617C35.2999 71.6174 34.6025 71.6453 33.9051 71.6732C33.9051 72.0359 33.9051 72.3706 33.9051 72.7332C34.3514 72.7611 34.7977 72.7611 35.272 72.7611C35.3556 72.7611 35.3556 72.8727 35.272 72.8727C34.8256 72.9285 34.3793 72.9006 33.9051 72.8448C33.9051 73.2354 33.9051 73.6538 33.9051 74.0443C34.6304 74.0443 35.3277 73.9606 36.0251 73.9048C36.0809 73.9048 36.0809 73.9885 36.0251 73.9885C35.3277 74.1559 34.6025 74.1838 33.8772 74.1559C33.8772 74.5464 33.8772 74.937 33.8772 75.2996C34.0446 75.2717 34.3514 75.2717 34.4351 75.2717C34.742 75.2438 35.0209 75.2438 35.3277 75.2717C35.3835 75.2717 35.3835 75.3833 35.3277 75.3833C35.0488 75.3833 34.7698 75.3833 34.5188 75.3833C34.4909 75.3833 34.1004 75.3833 33.8772 75.3833C33.8772 75.6343 33.8772 75.9133 33.8772 76.1643C34.6862 76.1643 35.4672 76.1085 36.2762 76.0249C36.332 76.0249 36.3599 76.1364 36.3041 76.1364C35.4951 76.248 34.6862 76.2759 33.8772 76.2201C33.8772 76.527 33.8772 76.8059 33.8772 77.1128C33.8772 77.1965 33.8772 77.2801 33.8772 77.3917C34.3793 77.3917 34.8814 77.3638 35.3835 77.3917C35.4393 77.3917 35.4393 77.4754 35.3835 77.4754C34.8814 77.5033 34.3793 77.4754 33.8772 77.4754C33.8772 77.8101 33.8772 78.1728 33.8772 78.5075C34.6862 78.4517 35.4951 78.4238 36.2762 78.4796C36.332 78.4796 36.332 78.5633 36.2762 78.5633C35.4672 78.5633 34.6862 78.5633 33.8772 78.5912C33.8772 78.9538 33.8772 79.3165 33.8772 79.6791C34.2956 79.6512 34.742 79.6233 35.1604 79.6233C35.2162 79.6233 35.2162 79.707 35.1604 79.707C34.742 79.7349 34.2956 79.7349 33.8772 79.7349C33.8772 79.986 33.8772 80.2649 33.8772 80.516C34.6025 80.516 35.2999 80.4602 36.0251 80.4602C36.1088 80.4602 36.0809 80.5718 36.0251 80.5718C35.3277 80.6554 34.6025 80.6554 33.8772 80.6275C33.8772 80.9344 33.8772 81.2412 33.8772 81.5202C34.5746 81.4923 35.272 81.4644 35.9693 81.4644C36.0251 81.4644 36.0251 81.5481 35.9693 81.5481C35.272 81.6039 34.5746 81.6039 33.8772 81.6039C33.8772 81.9107 33.8772 82.1897 33.8772 82.4965C34.6025 82.4686 35.3277 82.4407 36.053 82.4407C36.1088 82.4407 36.1088 82.5244 36.053 82.5244C35.3277 82.5523 34.6025 82.5523 33.8772 82.5523C33.8772 82.8312 33.8772 83.1381 33.8772 83.417C34.1004 83.417 34.3514 83.3891 34.4351 83.3891C34.6583 83.3891 34.8814 83.3891 35.1046 83.3891C35.5788 83.3891 36.0809 83.3891 36.5551 83.417C36.6109 83.417 36.6109 83.5286 36.5551 83.5286C35.8578 83.5565 35.1325 83.5007 34.4351 83.4728C34.3235 83.4728 34.0725 83.5007 33.8772 83.5007C33.8772 83.7797 33.8772 84.0865 33.8493 84.3655C34.5746 84.3097 35.3277 84.2539 36.053 84.3376C36.1088 84.3376 36.1088 84.4213 36.053 84.4213C35.3277 84.4492 34.5746 84.4213 33.8493 84.4492C33.8493 84.7002 33.8493 84.9234 33.8493 85.1744C34.6862 85.1186 35.5788 85.0907 36.3878 85.1465C36.4435 85.1465 36.4435 85.2302 36.3878 85.2302C35.5509 85.286 34.6583 85.286 33.8493 85.2023C33.8493 85.4255 33.8493 85.6486 33.8493 85.8718C34.5467 85.816 35.272 85.816 35.9693 85.8718C36.0251 85.8718 36.0251 85.9555 35.9693 85.9555C35.272 86.0113 34.5467 85.9834 33.8493 85.9555C33.8493 86.1787 33.8493 86.4018 33.8493 86.625C34.6862 86.6529 35.523 86.5971 36.3599 86.6529C36.4157 86.6529 36.4157 86.7365 36.3599 86.7365C35.523 86.8202 34.6583 86.7644 33.8493 86.7087C33.8493 86.9876 33.8493 87.2666 33.8214 87.5455C34.5467 87.5176 35.3277 87.5455 36.053 87.6571C36.1088 87.6571 36.1088 87.7687 36.0251 87.7687C35.2999 87.7966 34.5467 87.7408 33.8214 87.6292C33.8214 87.936 33.7935 88.215 33.7935 88.5218C34.2956 88.5218 34.7977 88.4939 35.2999 88.466C35.3556 88.466 35.3556 88.5497 35.2999 88.5497C34.8256 88.6613 34.2956 88.6613 33.7935 88.6055C33.7935 89.0797 33.7656 89.5261 33.7656 90.0003C38.173 89.6934 42.6083 89.8329 47.0158 89.7492C51.3116 89.6934 55.6353 89.6376 59.9312 89.5818C65.008 89.5261 70.0849 89.4424 75.1339 89.3866C75.0503 86.7644 75.0224 84.0028 75.2734 81.3807C75.2734 81.2412 75.385 81.1854 75.4687 81.1854C75.5245 81.1297 75.6082 81.1018 75.6918 81.1575C75.7197 81.1854 75.7476 81.1854 75.7755 81.1854C75.8034 81.1297 75.8592 81.1018 75.9429 81.1018C78.0908 80.9623 80.2666 81.1018 82.4145 81.046C82.5261 81.046 82.6098 81.0739 82.6377 81.1297C82.8051 81.046 83.0561 81.1575 83.0561 81.3807C83.0561 84.0028 83.1956 86.6529 83.0561 89.275C84.1161 89.2471 85.1762 89.2471 86.2362 89.2192C85.7341 88.0197 85.9293 86.4855 85.9014 85.1465ZM39.9304 88.215C39.9304 88.2987 39.8746 88.4103 39.7631 88.4381C39.2888 88.4939 38.7867 88.466 38.3125 88.4939C37.9499 88.4939 37.5593 88.5776 37.2246 88.4102C37.1967 88.3824 37.1688 88.3266 37.1967 88.2987C37.1967 88.2987 37.2246 88.2987 37.2246 88.2708C37.2246 88.2429 37.1967 88.2429 37.1967 88.215C37.0572 87.1829 37.0851 86.1786 37.0851 85.1465C37.0851 84.9513 37.2804 84.9234 37.4199 85.0071C37.4199 85.0071 37.4199 85.0071 37.4478 85.0071C37.5872 85.0071 37.7267 85.0071 37.8662 85.035C38.3962 85.0071 38.9541 84.9792 39.4562 85.035C39.512 85.035 39.5678 85.035 39.6236 85.035C39.6515 85.035 39.6794 85.035 39.7073 85.0628C39.8188 85.0071 39.9862 85.0628 39.9862 85.2023C40.1257 86.1229 40.1257 87.0992 40.1536 88.0197C40.1257 88.1313 40.042 88.215 39.9304 88.215ZM39.9304 83.0823C39.9304 83.166 39.8746 83.2776 39.7631 83.3055C39.2888 83.3613 38.7867 83.3334 38.3125 83.3613C37.9499 83.3613 37.5593 83.4449 37.2246 83.2776C37.1967 83.2497 37.1688 83.1939 37.1967 83.166C37.1967 83.166 37.2246 83.166 37.2246 83.1381C37.2246 83.1102 37.1967 83.1102 37.1967 83.0823C37.0572 82.0502 37.0851 81.046 37.0851 80.0139C37.0851 79.8186 37.2804 79.7907 37.4199 79.8744C37.4199 79.8744 37.4199 79.8744 37.4478 79.8744C37.5872 79.8744 37.7267 79.8744 37.8662 79.9023C38.3962 79.8744 38.9541 79.8465 39.4562 79.9023C39.512 79.9023 39.5678 79.9023 39.6236 79.9023C39.6515 79.9023 39.6794 79.9023 39.7073 79.9302C39.8188 79.9023 39.9862 79.9302 39.9862 80.0696C40.1257 80.9902 40.1257 81.9665 40.1536 82.887C40.1257 82.9986 40.042 83.0544 39.9304 83.0823ZM39.9304 77.7544C39.9304 77.838 39.8746 77.9496 39.7631 77.9775C39.2888 78.0333 38.7867 78.0054 38.3125 78.0333C37.9499 78.0333 37.5593 78.117 37.2246 77.9496C37.1967 77.9217 37.1688 77.8659 37.1967 77.838C37.1967 77.838 37.2246 77.838 37.2246 77.8101C37.2246 77.7822 37.1967 77.7822 37.1967 77.7544C37.0572 76.7222 37.0851 75.718 37.0851 74.6859C37.0851 74.4906 37.2804 74.4627 37.4199 74.5464C37.4199 74.5464 37.4199 74.5464 37.4478 74.5464C37.5872 74.5464 37.7267 74.5464 37.8662 74.5743C38.3962 74.5464 38.9541 74.5185 39.4562 74.5743C39.512 74.5743 39.5678 74.5743 39.6236 74.5743C39.6515 74.5743 39.6794 74.5743 39.7073 74.6022C39.8188 74.5464 39.9862 74.6022 39.9862 74.7417C40.1257 75.6622 40.1257 76.6386 40.1536 77.5591C40.1257 77.6428 40.042 77.7265 39.9304 77.7544ZM45.7605 88.2429C45.7605 88.3266 45.7047 88.4381 45.5931 88.466C45.1189 88.5218 44.6168 88.4939 44.1426 88.5218C43.7799 88.5218 43.3894 88.6055 43.0547 88.4381C43.0268 88.4103 42.9989 88.3545 43.0268 88.3266C43.0268 88.3266 43.0547 88.3266 43.0547 88.2987C43.0547 88.2708 43.0268 88.2708 43.0268 88.2429C42.8873 87.2108 42.9152 86.2065 42.9152 85.1744C42.9152 84.9792 43.1105 84.9513 43.2499 85.035C43.2499 85.035 43.2499 85.035 43.2778 85.035C43.4173 85.035 43.5568 85.035 43.6963 85.0628C44.2263 85.035 44.7842 85.0071 45.2863 85.0628C45.3421 85.0628 45.3978 85.0628 45.4536 85.0628C45.4815 85.0628 45.5094 85.0628 45.5373 85.0907C45.6489 85.0628 45.8163 85.0907 45.8163 85.2302C45.9558 86.1508 45.9557 87.1271 45.9836 88.0476C45.9557 88.1592 45.8442 88.215 45.7605 88.2429ZM45.7605 83.1102C45.7605 83.1939 45.7047 83.3055 45.5931 83.3334C45.1189 83.3891 44.6168 83.3613 44.1426 83.3891C43.7799 83.3891 43.3894 83.4728 43.0547 83.3055C43.0268 83.2776 42.9989 83.2218 43.0268 83.1939C43.0268 83.1939 43.0547 83.1939 43.0547 83.166C43.0547 83.1381 43.0268 83.1381 43.0268 83.1102C42.8873 82.0781 42.9152 81.0739 42.9152 80.0417C42.9152 79.8465 43.1105 79.8186 43.2499 79.9023C43.2499 79.9023 43.2499 79.9023 43.2778 79.9023C43.4173 79.9023 43.5568 79.9023 43.6963 79.9302C44.2263 79.9023 44.7842 79.8744 45.2863 79.9302C45.3421 79.9302 45.3978 79.9302 45.4536 79.9302C45.4815 79.9302 45.5094 79.9302 45.5373 79.9581C45.6489 79.9023 45.8163 79.9581 45.8163 80.0975C45.9558 81.0181 45.9557 81.9944 45.9836 82.9149C45.9557 82.9986 45.8442 83.0823 45.7605 83.1102ZM45.7605 77.7544C45.7605 77.838 45.7047 77.9496 45.5931 77.9775C45.1189 78.0333 44.6168 78.0054 44.1426 78.0333C43.7799 78.0333 43.3894 78.117 43.0547 77.9496C43.0268 77.9217 42.9989 77.8659 43.0268 77.838C43.0268 77.838 43.0547 77.838 43.0547 77.8101C43.0547 77.7822 43.0268 77.7822 43.0268 77.7544C42.8873 76.7222 42.9152 75.718 42.9152 74.6859C42.9152 74.4906 43.1105 74.4627 43.2499 74.5464C43.2499 74.5464 43.2499 74.5464 43.2778 74.5464C43.4173 74.5464 43.5568 74.5464 43.6963 74.5743C44.2263 74.5464 44.7842 74.5185 45.2863 74.5743C45.3421 74.5743 45.3978 74.5743 45.4536 74.5743C45.4815 74.5743 45.5094 74.5743 45.5373 74.6022C45.6489 74.5743 45.8163 74.6022 45.8163 74.7417C45.9558 75.6622 45.9557 76.6386 45.9836 77.5591C45.9557 77.6707 45.8442 77.7544 45.7605 77.7544ZM52.0369 88.1313C52.0369 88.215 51.9811 88.3266 51.8695 88.3545C51.3953 88.4103 50.8932 88.3824 50.419 88.4102C50.0563 88.4102 49.6658 88.4939 49.331 88.3266C49.3032 88.2987 49.2753 88.2429 49.3032 88.215C49.3032 88.215 49.331 88.215 49.331 88.1871C49.331 88.1592 49.3032 88.1592 49.3032 88.1313C49.1637 87.0992 49.1916 86.095 49.1916 85.0628C49.1916 84.8676 49.3868 84.8397 49.5263 84.9234C49.5263 84.9234 49.5263 84.9234 49.5542 84.9234C49.6937 84.9234 49.8332 84.9234 49.9726 84.9513C50.5026 84.9234 51.0605 84.8955 51.5626 84.9513C51.6184 84.9513 51.6742 84.9513 51.73 84.9513C51.7579 84.9513 51.7858 84.9513 51.8137 84.9792C51.9253 84.9234 52.0927 84.9792 52.0927 85.1186C52.2321 86.0392 52.2321 87.0155 52.26 87.936C52.2321 88.0476 52.1205 88.1313 52.0369 88.1313ZM52.0369 82.9986C52.0369 83.0823 51.9811 83.1939 51.8695 83.2218C51.3953 83.2776 50.8932 83.2497 50.419 83.2776C50.0563 83.2776 49.6658 83.3613 49.331 83.1939C49.3032 83.166 49.2753 83.1102 49.3032 83.0823C49.3032 83.0823 49.331 83.0823 49.331 83.0544C49.331 83.0265 49.3032 83.0265 49.3032 82.9986C49.1637 81.9665 49.1916 80.9623 49.1916 79.9302C49.1916 79.7349 49.3868 79.707 49.5263 79.7907C49.5263 79.7907 49.5263 79.7907 49.5542 79.7907C49.6937 79.7907 49.8332 79.7907 49.9726 79.8186C50.5026 79.7907 51.0605 79.7628 51.5626 79.8186C51.6184 79.8186 51.6742 79.8186 51.73 79.8186C51.7579 79.8186 51.7858 79.8186 51.8137 79.8465C51.9253 79.8186 52.0927 79.8465 52.0927 79.986C52.2321 80.9065 52.2321 81.8828 52.26 82.8034C52.2321 82.9149 52.1205 82.9707 52.0369 82.9986ZM52.0369 77.6707C52.0369 77.7544 51.9811 77.8659 51.8695 77.8938C51.3953 77.9496 50.8932 77.9217 50.419 77.9496C50.0563 77.9496 49.6658 78.0333 49.331 77.8659C49.3032 77.838 49.2753 77.7822 49.3032 77.7544C49.3032 77.7544 49.331 77.7544 49.331 77.7265C49.331 77.6986 49.3032 77.6986 49.3032 77.6707C49.1637 76.6385 49.1916 75.6343 49.1916 74.6022C49.1916 74.4069 49.3868 74.3791 49.5263 74.4627C49.5263 74.4627 49.5263 74.4627 49.5542 74.4627C49.6937 74.4627 49.8332 74.4627 49.9726 74.4906C50.5026 74.4627 51.0605 74.4348 51.5626 74.4906C51.6184 74.4906 51.6742 74.4906 51.73 74.4906C51.7579 74.4906 51.7858 74.4906 51.8137 74.5185C51.9253 74.4627 52.0927 74.5185 52.0927 74.658C52.2321 75.5785 52.2321 76.5549 52.26 77.4754C52.2321 77.587 52.1205 77.6428 52.0369 77.6707ZM58.4248 88.215C58.4248 88.2987 58.369 88.4103 58.2575 88.4381C57.7832 88.4939 57.2811 88.466 56.8069 88.4939C56.4443 88.4939 56.0537 88.5776 55.719 88.4102C55.6911 88.3824 55.6632 88.3266 55.6911 88.2987C55.6911 88.2987 55.719 88.2987 55.719 88.2708C55.719 88.2429 55.6911 88.2429 55.6911 88.215C55.5516 87.1829 55.5795 86.1786 55.5795 85.1465C55.5795 84.9513 55.7748 84.9234 55.9143 85.0071C55.9143 85.0071 55.9143 85.0071 55.9422 85.0071C56.0816 85.0071 56.2211 85.0071 56.3606 85.035C56.8906 85.0071 57.4485 84.9792 57.9506 85.035C58.0064 85.035 58.0622 85.035 58.118 85.035C58.1459 85.035 58.1738 85.035 58.2017 85.0628C58.3132 85.0071 58.4806 85.0628 58.4806 85.2023C58.6201 86.1229 58.6201 87.0992 58.648 88.0197C58.6201 88.1313 58.5364 88.215 58.4248 88.215ZM58.4248 83.0823C58.4248 83.166 58.369 83.2776 58.2575 83.3055C57.7832 83.3613 57.2811 83.3334 56.8069 83.3613C56.4443 83.3613 56.0537 83.4449 55.719 83.2776C55.6911 83.2497 55.6632 83.1939 55.6911 83.166C55.6911 83.166 55.719 83.166 55.719 83.1381C55.719 83.1102 55.6911 83.1102 55.6911 83.0823C55.5516 82.0502 55.5795 81.046 55.5795 80.0139C55.5795 79.8186 55.7748 79.7907 55.9143 79.8744C55.9143 79.8744 55.9143 79.8744 55.9422 79.8744C56.0816 79.8744 56.2211 79.8744 56.3606 79.9023C56.8906 79.8744 57.4485 79.8465 57.9506 79.9023C58.0064 79.9023 58.0622 79.9023 58.118 79.9023C58.1459 79.9023 58.1738 79.9023 58.2017 79.9302C58.3132 79.9023 58.4806 79.9302 58.4806 80.0696C58.6201 80.9902 58.6201 81.9665 58.648 82.887C58.6201 82.9986 58.5364 83.0544 58.4248 83.0823ZM58.4248 77.7544C58.4248 77.838 58.369 77.9496 58.2575 77.9775C57.7832 78.0333 57.2811 78.0054 56.8069 78.0333C56.4443 78.0333 56.0537 78.117 55.719 77.9496C55.6911 77.9217 55.6632 77.8659 55.6911 77.838C55.6911 77.838 55.719 77.838 55.719 77.8101C55.719 77.7822 55.6911 77.7822 55.6911 77.7544C55.5516 76.7222 55.5795 75.718 55.5795 74.6859C55.5795 74.4906 55.7748 74.4627 55.9143 74.5464C55.9143 74.5464 55.9143 74.5464 55.9422 74.5464C56.0816 74.5464 56.2211 74.5464 56.3606 74.5743C56.8906 74.5464 57.4485 74.5185 57.9506 74.5743C58.0064 74.5743 58.0622 74.5743 58.118 74.5743C58.1459 74.5743 58.1738 74.5743 58.2017 74.6022C58.3132 74.5464 58.4806 74.6022 58.4806 74.7417C58.6201 75.6622 58.6201 76.6386 58.648 77.5591C58.6201 77.6428 58.5364 77.7265 58.4248 77.7544ZM64.9523 88.2708C64.9523 88.3545 64.8965 88.466 64.7849 88.4939C64.3107 88.5497 63.8086 88.5218 63.3343 88.5497C62.9717 88.5497 62.5812 88.6334 62.2464 88.466C62.2185 88.4381 62.1906 88.3824 62.2185 88.3545C62.2185 88.3545 62.2464 88.3545 62.2464 88.3266C62.2464 88.2987 62.2185 88.2987 62.2185 88.2708C62.0791 87.2387 62.107 86.2344 62.107 85.2023C62.107 85.0071 62.3022 84.9792 62.4417 85.0628C62.4417 85.0628 62.4417 85.0628 62.4696 85.0628C62.6091 85.0628 62.7486 85.0628 62.888 85.0907C63.418 85.0628 63.9759 85.035 64.478 85.0907C64.5338 85.0907 64.5896 85.0907 64.6454 85.0907C64.6733 85.0907 64.7012 85.0907 64.7291 85.1186C64.8407 85.0907 65.008 85.1186 65.008 85.2581C65.1475 86.1787 65.1475 87.155 65.1754 88.0755C65.1475 88.1592 65.0638 88.2429 64.9523 88.2708ZM64.9523 83.1102C64.9523 83.1939 64.8965 83.3055 64.7849 83.3334C64.3107 83.3891 63.8086 83.3613 63.3343 83.3891C62.9717 83.3891 62.5812 83.4728 62.2464 83.3055C62.2185 83.2776 62.1906 83.2218 62.2185 83.1939C62.2185 83.1939 62.2464 83.1939 62.2464 83.166C62.2464 83.1381 62.2185 83.1381 62.2185 83.1102C62.0791 82.0781 62.107 81.0739 62.107 80.0417C62.107 79.8465 62.3022 79.8186 62.4417 79.9023C62.4417 79.9023 62.4417 79.9023 62.4696 79.9023C62.6091 79.9023 62.7486 79.9023 62.888 79.9302C63.418 79.9023 63.9759 79.8744 64.478 79.9302C64.5338 79.9302 64.5896 79.9302 64.6454 79.9302C64.6733 79.9302 64.7012 79.9302 64.7291 79.9581C64.8407 79.9302 65.008 79.9581 65.008 80.0975C65.1475 81.0181 65.1475 81.9944 65.1754 82.9149C65.1475 83.0265 65.0638 83.0823 64.9523 83.1102ZM64.9523 77.7822C64.9523 77.8659 64.8965 77.9775 64.7849 78.0054C64.3107 78.0612 63.8086 78.0333 63.3343 78.0612C62.9717 78.0612 62.5812 78.1449 62.2464 77.9775C62.2185 77.9496 62.1906 77.8938 62.2185 77.8659C62.2185 77.8659 62.2464 77.8659 62.2464 77.838C62.2464 77.8101 62.2185 77.8101 62.2185 77.7822C62.0791 76.7501 62.107 75.7459 62.107 74.7138C62.107 74.5185 62.3022 74.4906 62.4417 74.5743C62.4417 74.5743 62.4417 74.5743 62.4696 74.5743C62.6091 74.5743 62.7486 74.5743 62.888 74.6022C63.418 74.5743 63.9759 74.5464 64.478 74.6022C64.5338 74.6022 64.5896 74.6022 64.6454 74.6022C64.6733 74.6022 64.7012 74.6022 64.7291 74.6301C64.8407 74.5743 65.008 74.6301 65.008 74.7696C65.1475 75.6901 65.1475 76.6664 65.1754 77.587C65.1475 77.6986 65.0638 77.7544 64.9523 77.7822Z" fill="white"/>
</svg>
