<svg width="56" height="56" viewBox="0 0 56 56" fill="none" xmlns="http://www.w3.org/2000/svg">
<rect x="1" y="1" width="54" height="54" rx="23" fill="#F4E6D1"/>
<rect x="1" y="1" width="54" height="54" rx="23" stroke="#FCFCFC" stroke-width="2"/>
<g filter="url(#filter0_i_2310_21405)">
<rect x="8" y="8" width="40" height="40" rx="16" fill="#D49A49"/>
</g>
<path d="M21.4219 22.75C21.4219 20.9598 22.133 19.2429 23.3989 17.977C24.6648 16.7112 26.3817 16 28.1719 16C29.9621 16 31.679 16.7112 32.9448 17.977C34.2107 19.2429 34.9219 20.9598 34.9219 22.75C34.9219 24.5402 34.2107 26.2571 32.9448 27.523C31.679 28.7888 29.9621 29.5 28.1719 29.5C26.3817 29.5 24.6648 28.7888 23.3989 27.523C22.133 26.2571 21.4219 24.5402 21.4219 22.75ZM28.1719 19.75C28.5844 19.75 28.9219 19.4125 28.9219 19C28.9219 18.5875 28.5844 18.25 28.1719 18.25C25.6875 18.25 23.6719 20.2656 23.6719 22.75C23.6719 23.1625 24.0094 23.5 24.4219 23.5C24.8344 23.5 25.1719 23.1625 25.1719 22.75C25.1719 21.0953 26.5172 19.75 28.1719 19.75ZM26.6719 38.5V30.8641C27.1594 30.9531 27.6609 31 28.1719 31C28.6828 31 29.1844 30.9531 29.6719 30.8641V38.5C29.6719 39.3297 29.0016 40 28.1719 40C27.3422 40 26.6719 39.3297 26.6719 38.5Z" fill="#FCFCFC"/>
<defs>
<filter id="filter0_i_2310_21405" x="8" y="8" width="40" height="42" filterUnits="userSpaceOnUse" color-interpolation-filters="sRGB">
<feFlood flood-opacity="0" result="BackgroundImageFix"/>
<feBlend mode="normal" in="SourceGraphic" in2="BackgroundImageFix" result="shape"/>
<feColorMatrix in="SourceAlpha" type="matrix" values="0 0 0 0 0 0 0 0 0 0 0 0 0 0 0 0 0 0 127 0" result="hardAlpha"/>
<feOffset dy="2"/>
<feGaussianBlur stdDeviation="2"/>
<feComposite in2="hardAlpha" operator="arithmetic" k2="-1" k3="1"/>
<feColorMatrix type="matrix" values="0 0 0 0 0 0 0 0 0 0 0 0 0 0 0 0 0 0 0.05 0"/>
<feBlend mode="normal" in2="shape" result="effect1_innerShadow_2310_21405"/>
</filter>
</defs>
</svg>
