<svg width="56" height="56" viewBox="0 0 56 56" fill="none" xmlns="http://www.w3.org/2000/svg">
<rect x="1" y="1" width="54" height="54" rx="23" fill="#F4E6D1"/>
<rect x="1" y="1" width="54" height="54" rx="23" stroke="#FCFCFC" stroke-width="2"/>
<g filter="url(#filter0_i_2310_21385)">
<rect x="8" y="8" width="40" height="40" rx="16" fill="#D49A49"/>
</g>
<g clip-path="url(#clip0_2310_21385)">
<path d="M28.0781 20.5001C24.3938 20.5001 21.2766 22.9142 20.2172 26.2423C21.7922 25.4454 23.5688 25.0001 25.4531 25.0001H29.5781C29.9906 25.0001 30.3281 25.3376 30.3281 25.7501C30.3281 26.1626 29.9906 26.5001 29.5781 26.5001H28.8281H25.4531C24.675 26.5001 23.9203 26.5892 23.1891 26.7532C21.975 27.0298 20.85 27.522 19.8422 28.1923C17.1234 30.0064 15.3281 33.1048 15.3281 36.6251V37.3751C15.3281 37.9985 15.8297 38.5001 16.4531 38.5001C17.0766 38.5001 17.5781 37.9985 17.5781 37.3751V36.6251C17.5781 34.3423 18.5484 32.2892 20.1 30.8501C21.0281 34.3892 24.2484 37.0001 28.0781 37.0001H28.125C34.3172 36.9673 39.3281 30.8642 39.3281 23.3407C39.3281 21.3439 38.9766 19.4454 38.3391 17.7345C38.2172 17.411 37.7438 17.4251 37.5797 17.7298C36.6984 19.3798 34.9547 20.5001 32.9531 20.5001H28.0781Z" fill="#FCFCFC"/>
</g>
<defs>
<filter id="filter0_i_2310_21385" x="8" y="8" width="40" height="42" filterUnits="userSpaceOnUse" color-interpolation-filters="sRGB">
<feFlood flood-opacity="0" result="BackgroundImageFix"/>
<feBlend mode="normal" in="SourceGraphic" in2="BackgroundImageFix" result="shape"/>
<feColorMatrix in="SourceAlpha" type="matrix" values="0 0 0 0 0 0 0 0 0 0 0 0 0 0 0 0 0 0 127 0" result="hardAlpha"/>
<feOffset dy="2"/>
<feGaussianBlur stdDeviation="2"/>
<feComposite in2="hardAlpha" operator="arithmetic" k2="-1" k3="1"/>
<feColorMatrix type="matrix" values="0 0 0 0 0 0 0 0 0 0 0 0 0 0 0 0 0 0 0.05 0"/>
<feBlend mode="normal" in2="shape" result="effect1_innerShadow_2310_21385"/>
</filter>
<clipPath id="clip0_2310_21385">
<rect width="24" height="24" fill="white" transform="translate(15.3281 16)"/>
</clipPath>
</defs>
</svg>
