<svg width="57" height="56" viewBox="0 0 57 56" fill="none" xmlns="http://www.w3.org/2000/svg">
<rect x="0.671875" width="56.0001" height="56" rx="24" fill="#F4E6D1"/>
<g filter="url(#filter0_i_2310_20091)">
<rect x="8.67188" y="8" width="40.0001" height="40" rx="16" fill="#D49A49"/>
</g>
<path d="M28.6719 16C28.8875 16 29.1031 16.0469 29.3 16.1359L38.1266 19.8813C39.1578 20.3172 39.9266 21.3344 39.9219 22.5625C39.8985 27.2125 37.986 35.7203 29.9094 39.5875C29.1266 39.9625 28.2172 39.9625 27.4344 39.5875C19.3578 35.7203 17.4453 27.2125 17.4219 22.5625C17.4172 21.3344 18.186 20.3172 19.2172 19.8813L28.0485 16.1359C28.2406 16.0469 28.4563 16 28.6719 16ZM28.6719 19.1313V36.8547C35.1406 33.7188 36.8797 26.7859 36.9219 22.6281L28.6719 19.1313Z" fill="#FCFCFC"/>
<defs>
<filter id="filter0_i_2310_20091" x="8.67188" y="8" width="40" height="42" filterUnits="userSpaceOnUse" color-interpolation-filters="sRGB">
<feFlood flood-opacity="0" result="BackgroundImageFix"/>
<feBlend mode="normal" in="SourceGraphic" in2="BackgroundImageFix" result="shape"/>
<feColorMatrix in="SourceAlpha" type="matrix" values="0 0 0 0 0 0 0 0 0 0 0 0 0 0 0 0 0 0 127 0" result="hardAlpha"/>
<feOffset dy="2"/>
<feGaussianBlur stdDeviation="2"/>
<feComposite in2="hardAlpha" operator="arithmetic" k2="-1" k3="1"/>
<feColorMatrix type="matrix" values="0 0 0 0 0 0 0 0 0 0 0 0 0 0 0 0 0 0 0.05 0"/>
<feBlend mode="normal" in2="shape" result="effect1_innerShadow_2310_20091"/>
</filter>
</defs>
</svg>
