<svg width="64" height="64" viewBox="0 0 64 64" fill="none" xmlns="http://www.w3.org/2000/svg">
<rect x="1.14286" y="1.14286" width="61.7143" height="61.7143" rx="26.2857" fill="#F4E6D1"/>
<rect x="1.14286" y="1.14286" width="61.7143" height="61.7143" rx="26.2857" stroke="#FCFCFC" stroke-width="2.28571"/>
<g filter="url(#filter0_i_2310_20229)">
<rect x="9.14062" y="9.14307" width="45.7143" height="45.7143" rx="18.2857" fill="#D49A49"/>
</g>
<g clip-path="url(#clip0_2310_20229)">
<path d="M28.2359 22.2864C28.2359 20.8667 29.3878 19.7148 30.8075 19.7148H32.5219C33.9416 19.7148 35.0934 20.8667 35.0934 22.2864V41.1445C35.0934 42.5642 33.9416 43.7161 32.5219 43.7161H30.8075C29.3878 43.7161 28.2359 42.5642 28.2359 41.1445V22.2864ZM19.6641 32.5727C19.6641 31.1529 20.8159 30.0011 22.2356 30.0011H23.95C25.3697 30.0011 26.5216 31.1529 26.5216 32.5727V41.1445C26.5216 42.5642 25.3697 43.7161 23.95 43.7161H22.2356C20.8159 43.7161 19.6641 42.5642 19.6641 41.1445V32.5727ZM39.3794 23.1436H41.0937C42.5135 23.1436 43.6653 24.2954 43.6653 25.7152V41.1445C43.6653 42.5642 42.5135 43.7161 41.0937 43.7161H39.3794C37.9597 43.7161 36.8078 42.5642 36.8078 41.1445V25.7152C36.8078 24.2954 37.9597 23.1436 39.3794 23.1436Z" fill="#FCFCFC"/>
</g>
<defs>
<filter id="filter0_i_2310_20229" x="9.14062" y="9.14307" width="45.7109" height="48.0001" filterUnits="userSpaceOnUse" color-interpolation-filters="sRGB">
<feFlood flood-opacity="0" result="BackgroundImageFix"/>
<feBlend mode="normal" in="SourceGraphic" in2="BackgroundImageFix" result="shape"/>
<feColorMatrix in="SourceAlpha" type="matrix" values="0 0 0 0 0 0 0 0 0 0 0 0 0 0 0 0 0 0 127 0" result="hardAlpha"/>
<feOffset dy="2.28571"/>
<feGaussianBlur stdDeviation="2.28571"/>
<feComposite in2="hardAlpha" operator="arithmetic" k2="-1" k3="1"/>
<feColorMatrix type="matrix" values="0 0 0 0 0 0 0 0 0 0 0 0 0 0 0 0 0 0 0.05 0"/>
<feBlend mode="normal" in2="shape" result="effect1_innerShadow_2310_20229"/>
</filter>
<clipPath id="clip0_2310_20229">
<rect width="24.0012" height="27.43" fill="white" transform="translate(19.6641 18)"/>
</clipPath>
</defs>
</svg>
