<svg width="48" height="49" viewBox="0 0 48 49" fill="none" xmlns="http://www.w3.org/2000/svg">
<path d="M39 20C39 24.3031 37.6031 28.2781 35.25 31.5031L47.1188 43.3812C48.2906 44.5531 48.2906 46.4563 47.1188 47.6281C45.9469 48.8 44.0437 48.8 42.8719 47.6281L31.0031 35.75C27.7781 38.1125 23.8031 39.5 19.5 39.5C8.72812 39.5 0 30.7719 0 20C0 9.22812 8.72812 0.5 19.5 0.5C30.2719 0.5 39 9.22812 39 20ZM9.75 20.75V26.75C9.75 27.9969 10.7531 29 12 29C13.2469 29 14.25 27.9969 14.25 26.75V20.75C14.25 19.5031 13.2469 18.5 12 18.5C10.7531 18.5 9.75 19.5031 9.75 20.75ZM17.25 11.75V26.75C17.25 27.9969 18.2531 29 19.5 29C20.7469 29 21.75 27.9969 21.75 26.75V11.75C21.75 10.5031 20.7469 9.5 19.5 9.5C18.2531 9.5 17.25 10.5031 17.25 11.75ZM24.75 17.75V26.75C24.75 27.9969 25.7531 29 27 29C28.2469 29 29.25 27.9969 29.25 26.75V17.75C29.25 16.5031 28.2469 15.5 27 15.5C25.7531 15.5 24.75 16.5031 24.75 17.75Z" fill="#D49A49"/>
</svg>
