<svg width="43" height="42" viewBox="0 0 43 42" fill="none" xmlns="http://www.w3.org/2000/svg">
<path d="M15.6641 4.5C15.6641 2.01562 17.6797 0 20.1641 0H23.1641C25.6484 0 27.6641 2.01562 27.6641 4.5V37.5C27.6641 39.9844 25.6484 42 23.1641 42H20.1641C17.6797 42 15.6641 39.9844 15.6641 37.5V4.5ZM0.664062 22.5C0.664062 20.0156 2.67969 18 5.16406 18H8.16406C10.6484 18 12.6641 20.0156 12.6641 22.5V37.5C12.6641 39.9844 10.6484 42 8.16406 42H5.16406C2.67969 42 0.664062 39.9844 0.664062 37.5V22.5ZM35.1641 6H38.1641C40.6484 6 42.6641 8.01562 42.6641 10.5V37.5C42.6641 39.9844 40.6484 42 38.1641 42H35.1641C32.6797 42 30.6641 39.9844 30.6641 37.5V10.5C30.6641 8.01562 32.6797 6 35.1641 6Z" fill="#D49A49"/>
</svg>
