<svg width="56" height="56" viewBox="0 0 56 56" fill="none" xmlns="http://www.w3.org/2000/svg">
<rect width="56.0001" height="56" rx="24" fill="#F4E6D1"/>
<g filter="url(#filter0_i_114_2312)">
<rect x="8" y="8" width="40.0001" height="40" rx="16" fill="#D49A49"/>
</g>
<path d="M21 17.5C19.3453 17.5 18 18.8453 18 20.5V35.5C18 37.1547 19.3453 38.5 21 38.5H36C37.6547 38.5 39 37.1547 39 35.5V20.5C39 18.8453 37.6547 17.5 36 17.5H21ZM24 26.5C24.8297 26.5 25.5 27.1703 25.5 28V32.5C25.5 33.3297 24.8297 34 24 34C23.1703 34 22.5 33.3297 22.5 32.5V28C22.5 27.1703 23.1703 26.5 24 26.5ZM27 23.5C27 22.6703 27.6703 22 28.5 22C29.3297 22 30 22.6703 30 23.5V32.5C30 33.3297 29.3297 34 28.5 34C27.6703 34 27 33.3297 27 32.5V23.5ZM33 29.5C33.8297 29.5 34.5 30.1703 34.5 31V32.5C34.5 33.3297 33.8297 34 33 34C32.1703 34 31.5 33.3297 31.5 32.5V31C31.5 30.1703 32.1703 29.5 33 29.5Z" fill="white"/>
<defs>
<filter id="filter0_i_114_2312" x="8" y="8" width="40" height="42" filterUnits="userSpaceOnUse" color-interpolation-filters="sRGB">
<feFlood flood-opacity="0" result="BackgroundImageFix"/>
<feBlend mode="normal" in="SourceGraphic" in2="BackgroundImageFix" result="shape"/>
<feColorMatrix in="SourceAlpha" type="matrix" values="0 0 0 0 0 0 0 0 0 0 0 0 0 0 0 0 0 0 127 0" result="hardAlpha"/>
<feOffset dy="2"/>
<feGaussianBlur stdDeviation="2"/>
<feComposite in2="hardAlpha" operator="arithmetic" k2="-1" k3="1"/>
<feColorMatrix type="matrix" values="0 0 0 0 0 0 0 0 0 0 0 0 0 0 0 0 0 0 0.05 0"/>
<feBlend mode="normal" in2="shape" result="effect1_innerShadow_114_2312"/>
</filter>
</defs>
</svg>
