<svg width="56" height="56" viewBox="0 0 56 56" fill="none" xmlns="http://www.w3.org/2000/svg">
<rect x="1" y="1" width="54" height="54" rx="23" fill="#F4E6D1"/>
<rect x="1" y="1" width="54" height="54" rx="23" stroke="#FCFCFC" stroke-width="2"/>
<g filter="url(#filter0_i_2310_21365)">
<rect x="8" y="8" width="40" height="40" rx="16" fill="#D49A49"/>
</g>
<g clip-path="url(#clip0_2310_21365)">
<path d="M32.947 16.0563C33.1814 16.1547 33.3502 16.3657 33.397 16.6141L34.3299 21.6719L39.3877 22.6C39.6361 22.6469 39.847 22.8157 39.9455 23.05C40.0439 23.2844 40.0158 23.5516 39.8705 23.7625L36.9502 28L39.8705 32.2328C40.0158 32.4438 40.0439 32.711 39.9455 32.9453C39.847 33.1797 39.6361 33.3485 39.3877 33.3953L34.3299 34.3282L33.397 39.386C33.3502 39.6344 33.1814 39.8453 32.947 39.9438C32.7127 40.0422 32.4455 40.0141 32.2345 39.8688L28.0017 36.9485L23.7689 39.8688C23.558 40.0141 23.2908 40.0422 23.0564 39.9438C22.822 39.8453 22.6533 39.6344 22.6064 39.386L21.6736 34.3282L16.6158 33.3953C16.3674 33.3485 16.1564 33.1797 16.058 32.9453C15.9595 32.711 15.9877 32.4438 16.133 32.2328L19.0533 28L16.133 23.7672C15.9877 23.5563 15.9595 23.2891 16.058 23.0547C16.1564 22.8203 16.3674 22.6516 16.6158 22.6047L21.6736 21.6719L22.6064 16.6141C22.6533 16.3657 22.822 16.1547 23.0564 16.0563C23.2908 15.9578 23.558 15.986 23.7689 16.1313L28.0017 19.0516L32.2345 16.1313C32.4455 15.986 32.7127 15.9578 32.947 16.0563ZM23.5017 28C23.5017 26.8066 23.9758 25.662 24.8198 24.818C25.6637 23.9741 26.8083 23.5 28.0017 23.5C29.1952 23.5 30.3398 23.9741 31.1837 24.818C32.0276 25.662 32.5017 26.8066 32.5017 28C32.5017 29.1935 32.0276 30.3381 31.1837 31.182C30.3398 32.0259 29.1952 32.5 28.0017 32.5C26.8083 32.5 25.6637 32.0259 24.8198 31.182C23.9758 30.3381 23.5017 29.1935 23.5017 28ZM34.0017 28C34.0017 26.4087 33.3696 24.8826 32.2444 23.7574C31.1192 22.6322 29.593 22 28.0017 22C26.4104 22 24.8843 22.6322 23.7591 23.7574C22.6339 24.8826 22.0017 26.4087 22.0017 28C22.0017 29.5913 22.6339 31.1174 23.7591 32.2427C24.8843 33.3679 26.4104 34 28.0017 34C29.593 34 31.1192 33.3679 32.2444 32.2427C33.3696 31.1174 34.0017 29.5913 34.0017 28Z" fill="#FCFCFC"/>
</g>
<defs>
<filter id="filter0_i_2310_21365" x="8" y="8" width="40" height="42" filterUnits="userSpaceOnUse" color-interpolation-filters="sRGB">
<feFlood flood-opacity="0" result="BackgroundImageFix"/>
<feBlend mode="normal" in="SourceGraphic" in2="BackgroundImageFix" result="shape"/>
<feColorMatrix in="SourceAlpha" type="matrix" values="0 0 0 0 0 0 0 0 0 0 0 0 0 0 0 0 0 0 127 0" result="hardAlpha"/>
<feOffset dy="2"/>
<feGaussianBlur stdDeviation="2"/>
<feComposite in2="hardAlpha" operator="arithmetic" k2="-1" k3="1"/>
<feColorMatrix type="matrix" values="0 0 0 0 0 0 0 0 0 0 0 0 0 0 0 0 0 0 0.05 0"/>
<feBlend mode="normal" in2="shape" result="effect1_innerShadow_2310_21365"/>
</filter>
<clipPath id="clip0_2310_21365">
<rect width="24" height="24" fill="white" transform="translate(16 16)"/>
</clipPath>
</defs>
</svg>
